<?xml version="1.0" encoding="utf-8"?><svg width="1330px" height="250px" viewBox="0 0 1330 250"  style="font-family: Source Sans Pro;font-size: 16px;" version="1.1" xmlns="http://www.w3.org/2000/svg" xmlns:xlink="http://www.w3.org/1999/xlink"><defs xmlns="http://www.w3.org/2000/svg"><clipPath id="id-190"><rect width="1330" height="250"/></clipPath><linearGradient id="gradient-id-209" x1="1%" x2="99%" y1="59%" y2="41%"><stop stop-color="#474758" offset="0"/><stop stop-color="#474758" stop-opacity="1" offset="0.75"/><stop stop-color="#3cabff" stop-opacity="1" offset="0.755"/></linearGradient><filter id="filter-id-218" filterUnits="objectBoundingBox" width="200%" height="200%" x="-50%" y="-50%"/><filter id="filter-id-239" filterUnits="objectBoundingBox" width="200%" height="200%" x="-50%" y="-50%"/><clipPath id="id-270"><path d="M0,0 L1226,0 L1226,134 L0,134 L0,0"/></clipPath><clipPath id="id-285"><path d="M0,0 L1226,0 L1226,134 L0,134 L0,0"/></clipPath><clipPath id="id-663"><rect width="1226" height="134"/></clipPath><filter id="filter-id-195" filterUnits="objectBoundingBox" width="200%" height="200%" x="-50%" y="-50%"><feGaussianBlur result="blurOut" in="SourceGraphic" stdDeviation="1.5"/><feOffset result="offsetBlur" dx="1" dy="1"/><feFlood flood-color="#000000" flood-opacity="0.5"/><feComposite in2="offsetBlur" operator="in"/><feMerge><feMergeNode/><feMergeNode in="SourceGraphic"/></feMerge></filter><filter id="filter-id-206" filterUnits="objectBoundingBox" width="120%" height="120%" x="-10%" y="-10%"><feColorMatrix type="saturate" values="0"/></filter><filter id="filter-id-275" filterUnits="objectBoundingBox" width="200%" height="200%" x="-50%" y="-50%"><feGaussianBlur result="blurOut" in="SourceGraphic" stdDeviation="1.5"/><feOffset result="offsetBlur" dx="1" dy="1"/><feFlood flood-color="#000000" flood-opacity="0.5"/><feComposite in2="offsetBlur" operator="in"/><feMerge><feMergeNode/><feMergeNode in="SourceGraphic"/></feMerge></filter><filter id="filter-id-290" filterUnits="objectBoundingBox" width="200%" height="200%" x="-50%" y="-50%"><feGaussianBlur result="blurOut" in="SourceGraphic" stdDeviation="1.5"/><feOffset result="offsetBlur" dx="1" dy="1"/><feFlood flood-color="#000000" flood-opacity="0.5"/><feComposite in2="offsetBlur" operator="in"/><feMerge><feMergeNode/><feMergeNode in="SourceGraphic"/></feMerge></filter></defs><g xmlns="http://www.w3.org/2000/svg"><g fill="#ffffff" fill-opacity="0"><rect width="1330" height="250"/></g><g><g role="region" clip-path="url(#id-190)" opacity="1" aria-label="Chart"><g transform="translate(15,15)"><g><g><g><g><g><g><g transform="translate(74,0)"><g fill="#ffffff" fill-opacity="0"><rect width="1226" height="134"/></g><g><g><g/></g><g><g><g stroke-opacity="0.2" stroke="#000000" fill="none" transform="translate(1226,0)"><path d=" M0,0  L0,134 " transform="translate(-0.5,-0.5)"/></g><g stroke-opacity="0.2" stroke="#000000" fill="none"><path d=" M0,0  L0,134 " transform="translate(-0.5,-0.5)"/></g><g stroke-opacity="0.2" stroke="#000000" fill="none" transform="translate(94,0)"><path d=" M0,0  L0,134 " transform="translate(-0.5,-0.5)"/></g><g stroke-opacity="0.2" stroke="#000000" fill="none" transform="translate(189,0)"><path d=" M0,0  L0,134 " transform="translate(-0.5,-0.5)"/></g><g stroke-opacity="0.2" stroke="#000000" fill="none" transform="translate(283,0)"><path d=" M0,0  L0,134 " transform="translate(-0.5,-0.5)"/></g><g stroke-opacity="0.2" stroke="#000000" fill="none" transform="translate(377,0)"><path d=" M0,0  L0,134 " transform="translate(-0.5,-0.5)"/></g><g stroke-opacity="0.2" stroke="#000000" fill="none" transform="translate(472,0)"><path d=" M0,0  L0,134 " transform="translate(-0.5,-0.5)"/></g><g stroke-opacity="0.2" stroke="#000000" fill="none" transform="translate(566,0)"><path d=" M0,0  L0,134 " transform="translate(-0.5,-0.5)"/></g><g stroke-opacity="0.2" stroke="#000000" fill="none" transform="translate(660,0)"><path d=" M0,0  L0,134 " transform="translate(-0.5,-0.5)"/></g><g stroke-opacity="0.2" stroke="#000000" fill="none" transform="translate(754,0)"><path d=" M0,0  L0,134 " transform="translate(-0.5,-0.5)"/></g><g stroke-opacity="0.2" stroke="#000000" fill="none" transform="translate(849,0)"><path d=" M0,0  L0,134 " transform="translate(-0.5,-0.5)"/></g><g stroke-opacity="0.2" stroke="#000000" fill="none" transform="translate(943,0)"><path d=" M0,0  L0,134 " transform="translate(-0.5,-0.5)"/></g><g stroke-opacity="0.2" stroke="#000000" fill="none" transform="translate(1037,0)"><path d=" M0,0  L0,134 " transform="translate(-0.5,-0.5)"/></g><g stroke-opacity="0.2" stroke="#000000" fill="none" transform="translate(1132,0)"><path d=" M0,0  L0,134 " transform="translate(-0.5,-0.5)"/></g></g></g><g><g><g role="group" stroke-opacity="0" fill-opacity="1" stroke="#86ce86" aria-label="ACXIX" stroke-width="0" id="id-267"><g><g clip-path="url(#id-270)"><g><g><g><g stroke-opacity="1" fill="#08da94" fill-opacity="1" stroke="#86ce86" stroke-width="0" role="menuitem" focusable="true" tabindex="0" transform="translate(9.428,49.915)"><g><g><path d="M0,0 L37.724,0 a0,0 0 0 1 0,0 L37.724,17.085 a0,0 0 0 1 -0,0 L0,17.085 a0,0 0 0 1 -0,-0 L0,0 a0,0 0 0 1 0,-0 Z"/></g></g></g><g stroke-opacity="1" fill="#08da94" fill-opacity="1" stroke="#86ce86" stroke-width="0" role="menuitem" focusable="true" tabindex="0" transform="translate(103.744,60.769)"><g><g><path d="M0,0 L37.712,0 a0,0 0 0 1 0,0 L37.712,6.231 a0,0 0 0 1 -0,0 L0,6.231 a0,0 0 0 1 -0,-0 L0,0 a0,0 0 0 1 0,-0 Z"/></g></g></g><g stroke-opacity="1" fill="#08da94" fill-opacity="1" stroke="#86ce86" stroke-width="0" role="menuitem" focusable="true" tabindex="0" transform="translate(198.048,45.319)"><g><g><path d="M0,0 L37.724,0 a0,0 0 0 1 0,0 L37.724,21.681 a0,0 0 0 1 -0,0 L0,21.681 a0,0 0 0 1 -0,-0 L0,0 a0,0 0 0 1 0,-0 Z"/></g></g></g><g stroke-opacity="1" fill="#08da94" fill-opacity="1" stroke="#86ce86" stroke-width="0" role="menuitem" focusable="true" tabindex="0" transform="translate(292.352,66.236)"><g><g><path d="M0,0 L37.724,0 a0,0 0 0 1 0,0 L37.724,0.764 a0,0 0 0 1 -0,0 L0,0.764 a0,0 0 0 1 -0,-0 L0,0 a0,0 0 0 1 0,-0 Z"/></g></g></g><g stroke-opacity="1" fill="#08da94" fill-opacity="1" stroke="#86ce86" stroke-width="0" role="menuitem" focusable="true" tabindex="0" transform="translate(386.656,67)"><g><g><path d="M0,0 L37.724,0 a0,0 0 0 1 0,0 L37.724,4.663 a0,0 0 0 1 -0,0 L0,4.663 a0,0 0 0 1 -0,-0 L0,0 a0,0 0 0 1 0,-0 Z"/></g></g></g><g stroke-opacity="1" fill="#08da94" fill-opacity="1" stroke="#86ce86" stroke-width="0" role="menuitem" focusable="true" tabindex="0" transform="translate(480.972,67)"><g><g><path d="M0,0 L37.724,0 a0,0 0 0 1 0,0 L37.724,0.429 a0,0 0 0 1 -0,0 L0,0.429 a0,0 0 0 1 -0,-0 L0,0 a0,0 0 0 1 0,-0 Z"/></g></g></g><g stroke-opacity="1" fill="#08da94" fill-opacity="1" stroke="#86ce86" stroke-width="0" role="menuitem" focusable="true" tabindex="0" transform="translate(575.276,52.716)"><g><g><path d="M0,0 L37.724,0 a0,0 0 0 1 0,0 L37.724,14.284 a0,0 0 0 1 -0,0 L0,14.284 a0,0 0 0 1 -0,-0 L0,0 a0,0 0 0 1 0,-0 Z"/></g></g></g><g stroke-opacity="1" fill="#08da94" fill-opacity="1" stroke="#86ce86" stroke-width="0" role="menuitem" focusable="true" tabindex="0" transform="translate(669.58,67)"><g><g><path d="M0,0 L37.724,0 a0,0 0 0 1 0,0 L37.724,1.38 a0,0 0 0 1 -0,0 L0,1.38 a0,0 0 0 1 -0,-0 L0,0 a0,0 0 0 1 0,-0 Z"/></g></g></g><g stroke-opacity="1" fill="#08da94" fill-opacity="1" stroke="#86ce86" stroke-width="0" role="menuitem" focusable="true" tabindex="0" transform="translate(763.896,67)"><g><g><path d="M0,0 L37.724,0 a0,0 0 0 1 0,0 L37.724,1.943 a0,0 0 0 1 -0,0 L0,1.943 a0,0 0 0 1 -0,-0 L0,0 a0,0 0 0 1 0,-0 Z"/></g></g></g><g stroke-opacity="1" fill="#08da94" fill-opacity="1" stroke="#86ce86" stroke-width="0" role="menuitem" focusable="true" tabindex="0" transform="translate(858.2,64.789)"><g><g><path d="M0,0 L37.724,0 a0,0 0 0 1 0,0 L37.724,2.211 a0,0 0 0 1 -0,0 L0,2.211 a0,0 0 0 1 -0,-0 L0,0 a0,0 0 0 1 0,-0 Z"/></g></g></g><g stroke-opacity="1" fill="#08da94" fill-opacity="1" stroke="#86ce86" stroke-width="0" role="menuitem" focusable="true" tabindex="0" transform="translate(952.504,67)"><g><g><path d="M0,0 L37.724,0 a0,0 0 0 1 0,0 L37.724,2.265 a0,0 0 0 1 -0,0 L0,2.265 a0,0 0 0 1 -0,-0 L0,0 a0,0 0 0 1 0,-0 Z"/></g></g></g><g stroke-opacity="1" fill="#08da94" fill-opacity="1" stroke="#86ce86" stroke-width="0" role="menuitem" focusable="true" tabindex="0" transform="translate(1046.82,63.69)"><g><g><path d="M0,0 L37.724,0 a0,0 0 0 1 0,0 L37.724,3.31 a0,0 0 0 1 -0,0 L0,3.31 a0,0 0 0 1 -0,-0 L0,0 a0,0 0 0 1 0,-0 Z"/></g></g></g><g stroke-opacity="1" fill="#08da94" fill-opacity="1" stroke="#86ce86" stroke-width="0" role="menuitem" focusable="true" tabindex="0" transform="translate(1141.124,60.501)"><g><g><path d="M0,0 L37.724,0 a0,0 0 0 1 0,0 L37.724,6.499 a0,0 0 0 1 -0,0 L0,6.499 a0,0 0 0 1 -0,-0 L0,0 a0,0 0 0 1 0,-0 Z"/></g></g></g></g></g></g></g><g/></g></g><g role="group" stroke-opacity="0" fill-opacity="1" stroke="#0975da" aria-label="S&amp;P 500 TR Index" stroke-width="0" id="id-282"><g><g clip-path="url(#id-285)"><g><g><g><g stroke-opacity="1" fill="#2d7abf" fill-opacity="1" stroke="#0975da" stroke-width="0" role="menuitem" focusable="true" tabindex="0" transform="translate(47.152,67)"><g><g><path d="M0,0 L37.724,0 a0,0 0 0 1 0,0 L37.724,49.58 a0,0 0 0 1 -0,0 L0,49.58 a0,0 0 0 1 -0,-0 L0,0 a0,0 0 0 1 0,-0 Z"/></g></g></g><g stroke-opacity="1" fill="#2d7abf" fill-opacity="1" stroke="#0975da" stroke-width="0" role="menuitem" focusable="true" tabindex="0" transform="translate(141.456,31.544)"><g><g><path d="M0,0 L37.724,0 a0,0 0 0 1 0,0 L37.724,35.456 a0,0 0 0 1 -0,0 L0,35.456 a0,0 0 0 1 -0,-0 L0,0 a0,0 0 0 1 0,-0 Z"/></g></g></g><g stroke-opacity="1" fill="#2d7abf" fill-opacity="1" stroke="#0975da" stroke-width="0" role="menuitem" focusable="true" tabindex="0" transform="translate(235.772,46.82)"><g><g><path d="M0,0 L37.724,0 a0,0 0 0 1 0,0 L37.724,20.18 a0,0 0 0 1 -0,0 L0,20.18 a0,0 0 0 1 -0,-0 L0,0 a0,0 0 0 1 0,-0 Z"/></g></g></g><g stroke-opacity="1" fill="#2d7abf" fill-opacity="1" stroke="#0975da" stroke-width="0" role="menuitem" focusable="true" tabindex="0" transform="translate(330.076,64.173)"><g><g><path d="M0,0 L37.724,0 a0,0 0 0 1 0,0 L37.724,2.827 a0,0 0 0 1 -0,0 L0,2.827 a0,0 0 0 1 -0,-0 L0,0 a0,0 0 0 1 0,-0 Z"/></g></g></g><g stroke-opacity="1" fill="#2d7abf" fill-opacity="1" stroke="#0975da" stroke-width="0" role="menuitem" focusable="true" tabindex="0" transform="translate(424.38,45.56)"><g><g><path d="M0,0 L37.724,0 a0,0 0 0 1 0,0 L37.724,21.44 a0,0 0 0 1 -0,0 L0,21.44 a0,0 0 0 1 -0,-0 L0,0 a0,0 0 0 1 0,-0 Z"/></g></g></g><g stroke-opacity="1" fill="#2d7abf" fill-opacity="1" stroke="#0975da" stroke-width="0" role="menuitem" focusable="true" tabindex="0" transform="translate(518.696,23.597)"><g><g><path d="M0,0 L37.724,0 a0,0 0 0 1 0,0 L37.724,43.403 a0,0 0 0 1 -0,0 L0,43.403 a0,0 0 0 1 -0,-0 L0,0 a0,0 0 0 1 0,-0 Z"/></g></g></g><g stroke-opacity="1" fill="#2d7abf" fill-opacity="1" stroke="#0975da" stroke-width="0" role="menuitem" focusable="true" tabindex="0" transform="translate(613,48.655)"><g><g><path d="M0,0 L37.724,0 a0,0 0 0 1 0,0 L37.724,18.345 a0,0 0 0 1 -0,0 L0,18.345 a0,0 0 0 1 -0,-0 L0,0 a0,0 0 0 1 0,-0 Z"/></g></g></g><g stroke-opacity="1" fill="#2d7abf" fill-opacity="1" stroke="#0975da" stroke-width="0" role="menuitem" focusable="true" tabindex="0" transform="translate(707.304,65.151)"><g><g><path d="M0,0 L37.724,0 a0,0 0 0 1 0,0 L37.724,1.849 a0,0 0 0 1 -0,0 L0,1.849 a0,0 0 0 1 -0,-0 L0,0 a0,0 0 0 1 0,-0 Z"/></g></g></g><g stroke-opacity="1" fill="#2d7abf" fill-opacity="1" stroke="#0975da" stroke-width="0" role="menuitem" focusable="true" tabindex="0" transform="translate(801.62,50.974)"><g><g><path d="M0,0 L37.724,0 a0,0 0 0 1 0,0 L37.724,16.026 a0,0 0 0 1 -0,0 L0,16.026 a0,0 0 0 1 -0,-0 L0,0 a0,0 0 0 1 0,-0 Z"/></g></g></g><g stroke-opacity="1" fill="#2d7abf" fill-opacity="1" stroke="#0975da" stroke-width="0" role="menuitem" focusable="true" tabindex="0" transform="translate(895.924,37.748)"><g><g><path d="M0,0 L37.724,0 a0,0 0 0 1 0,0 L37.724,29.252 a0,0 0 0 1 -0,0 L0,29.252 a0,0 0 0 1 -0,-0 L0,0 a0,0 0 0 1 0,-0 Z"/></g></g></g><g stroke-opacity="1" fill="#2d7abf" fill-opacity="1" stroke="#0975da" stroke-width="0" role="menuitem" focusable="true" tabindex="0" transform="translate(990.228,67)"><g><g><path d="M0,0 L37.724,0 a0,0 0 0 1 0,0 L37.724,5.869 a0,0 0 0 1 -0,0 L0,5.869 a0,0 0 0 1 -0,-0 L0,0 a0,0 0 0 1 0,-0 Z"/></g></g></g><g stroke-opacity="1" fill="#2d7abf" fill-opacity="1" stroke="#0975da" stroke-width="0" role="menuitem" focusable="true" tabindex="0" transform="translate(1084.544,24.803)"><g><g><path d="M0,0 L37.712,0 a0,0 0 0 1 0,0 L37.712,42.197 a0,0 0 0 1 -0,0 L0,42.197 a0,0 0 0 1 -0,-0 L0,0 a0,0 0 0 1 0,-0 Z"/></g></g></g><g stroke-opacity="1" fill="#2d7abf" fill-opacity="1" stroke="#0975da" stroke-width="0" role="menuitem" focusable="true" tabindex="0" transform="translate(1178.848,42.344)"><g><g><path d="M0,0 L37.724,0 a0,0 0 0 1 0,0 L37.724,24.656 a0,0 0 0 1 -0,0 L0,24.656 a0,0 0 0 1 -0,-0 L0,0 a0,0 0 0 1 0,-0 Z"/></g></g></g></g></g></g></g><g/></g></g></g></g><g clip-path="url(#id-663)"><g><g fill="#08da94" stroke="#86ce86"><g/></g><g fill="#2d7abf" stroke="#0975da"><g/></g></g></g><g><g><g><g/></g><g><g/></g></g></g><g><g/></g><g><g/></g><g role="button" focusable="true" tabindex="0" opacity="0" visibility="hidden" aria-hidden="true" transform="translate(1186,-3)" aria-labelledby="id-181-title"><g fill="#6794dc" stroke="#ffffff" fill-opacity="1" stroke-opacity="0" transform="translate(0,8)"><path d="M17,0 L18,0 a17,17 0 0 1 17,17 L35,17 a17,17 0 0 1 -17,17 L17,34 a17,17 0 0 1 -17,-17 L0,17 a17,17 0 0 1 17,-17 Z"/></g><g transform="translate(9,9)"><g stroke="#ffffff" style="pointer-events: none;" transform="translate(0,8)"><path d=" M0,0  L11,0 " transform="translate(2.5,7.5)"/></g><g fill="#000000" style="pointer-events: none;" transform="translate(17,8)"><g display="none"/></g></g><title id="id-181-title">Zoom Out</title></g></g></g><g><g><g aria-hidden="true"><g><g fill="#000000" transform="translate(0,67) rotate(-90)"><g display="none"/></g><g stroke-opacity="0.07" stroke="#000000" fill="none" transform="translate(74,67)" opacity="1"><path transform="translate(-0.5,-0.5)" d=" M0,0  L1226,0 "/></g><g transform="translate(0,0)"><g><g fill="#000000" aria-label="L" fill-opacity="0" opacity="0" stroke-opacity="0" style="pointer-events: none;" font-weight="Bold" font-size="23px" transform="translate(74,67)"><g transform="translate(-64,-12.5)" style="user-select: none;"><text x="0" y="25" dy="-6.75"><tspan>-50%</tspan></text></g></g><g fill="#000000" font-weight="Bold" font-size="23px" transform="translate(74,-67)" display="none"><g transform="translate(-68,-12.5)" style="user-select: none;"><text x="0" y="25" dy="-6.75"><tspan>100%</tspan></text></g></g><g fill="#000000" font-weight="Bold" font-size="23px" transform="translate(74,0)"><g transform="translate(-56,-12.5)" style="user-select: none;"><text x="0" y="25" dy="-6.75"><tspan>50%</tspan></text></g></g><g fill="#000000" font-weight="Bold" font-size="23px" transform="translate(74,67)"><g transform="translate(-45,-12.5)" style="user-select: none;"><text x="0" y="25" dy="-6.75"><tspan>0%</tspan></text></g></g><g fill="#000000" font-weight="Bold" font-size="23px" transform="translate(74,134)"><g transform="translate(-64,-12.5)" style="user-select: none;"><text x="0" y="25" dy="-6.75"><tspan>-50%</tspan></text></g></g><g fill="#000000" font-weight="Bold" font-size="23px" transform="translate(74,201)" display="none"><g transform="translate(-76,-12.5)" style="user-select: none;"><text x="0" y="25" dy="-6.75"><tspan>-100%</tspan></text></g></g><g fill="#000000" font-weight="Bold" font-size="23px" transform="translate(74,268)" display="none"><g transform="translate(-76,-12.5)" style="user-select: none;"><text x="0" y="25" dy="-6.75"><tspan>-150%</tspan></text></g></g></g></g><g stroke="#000000" stroke-opacity="0" fill="none" style="pointer-events: none;" transform="translate(74,0)"><path d=" M0,0  L0,134 " transform="translate(-0.5,-0.5)"/></g></g></g></g></g><g transform="translate(1300,0)"><g/></g></g></g><g><g transform="translate(74,0)"/></g><g transform="translate(0,134)"><g transform="translate(74,0)"><g aria-hidden="true"><g><g stroke="#000000" stroke-opacity="0" fill="none" style="pointer-events: none;"><path d=" M0,0  L1226,0 " transform="translate(-0.5,-0.5)"/></g><g><g><g fill="#000000" aria-label="L" fill-opacity="0" opacity="0" stroke-opacity="0" style="pointer-events: none;" font-weight="Bold" font-size="23px" transform="translate(613,0)"><g transform="translate(-8,10)" style="user-select: none;"><text x="8px" y="25" dy="-6.75" text-anchor="middle"><tspan>L</tspan></text></g></g><g fill="#000000" font-weight="Bold" font-size="23px" display="none" transform="translate(1273.152,0)"><g transform="translate(0,10)" display="none"/></g><g fill="#000000" font-weight="Bold" font-size="23px" transform="translate(47.152,0)"><g transform="translate(-23,10)" style="user-select: none;"><text x="23px" y="25" overflow="hidden" dy="-6.75" text-anchor="middle"><tspan>2008</tspan></text></g></g><g fill="#000000" font-weight="Bold" font-size="23px" transform="translate(141.462,0)"><g transform="translate(-23,10)" style="user-select: none;"><text x="23px" y="25" overflow="hidden" dy="-6.75" text-anchor="middle"><tspan>2009</tspan></text></g></g><g fill="#000000" font-weight="Bold" font-size="23px" transform="translate(235.772,0)"><g transform="translate(-23,10)" style="user-select: none;"><text x="23px" y="25" overflow="hidden" dy="-6.75" text-anchor="middle"><tspan>2010</tspan></text></g></g><g fill="#000000" font-weight="Bold" font-size="23px" transform="translate(330.076,0)"><g transform="translate(-22.5,10)" style="user-select: none;"><text x="22.5px" y="25" overflow="hidden" dy="-6.75" text-anchor="middle"><tspan>2011</tspan></text></g></g><g fill="#000000" font-weight="Bold" font-size="23px" transform="translate(424.386,0)"><g transform="translate(-23,10)" style="user-select: none;"><text x="23px" y="25" overflow="hidden" dy="-6.75" text-anchor="middle"><tspan>2012</tspan></text></g></g><g fill="#000000" font-weight="Bold" font-size="23px" transform="translate(518.696,0)"><g transform="translate(-23,10)" style="user-select: none;"><text x="23px" y="25" overflow="hidden" dy="-6.75" text-anchor="middle"><tspan>2013</tspan></text></g></g><g fill="#000000" font-weight="Bold" font-size="23px" transform="translate(613,0)"><g transform="translate(-23,10)" style="user-select: none;"><text x="23px" y="25" overflow="hidden" dy="-6.75" text-anchor="middle"><tspan>2014</tspan></text></g></g><g fill="#000000" font-weight="Bold" font-size="23px" transform="translate(707.304,0)"><g transform="translate(-23,10)" style="user-select: none;"><text x="23px" y="25" overflow="hidden" dy="-6.75" text-anchor="middle"><tspan>2015</tspan></text></g></g><g fill="#000000" font-weight="Bold" font-size="23px" transform="translate(801.614,0)"><g transform="translate(-23,10)" style="user-select: none;"><text x="23px" y="25" overflow="hidden" dy="-6.75" text-anchor="middle"><tspan>2016</tspan></text></g></g><g fill="#000000" font-weight="Bold" font-size="23px" transform="translate(895.924,0)"><g transform="translate(-23,10)" style="user-select: none;"><text x="23px" y="25" overflow="hidden" dy="-6.75" text-anchor="middle"><tspan>2017</tspan></text></g></g><g fill="#000000" font-weight="Bold" font-size="23px" transform="translate(990.228,0)"><g transform="translate(-23,10)" style="user-select: none;"><text x="23px" y="25" overflow="hidden" dy="-6.75" text-anchor="middle"><tspan>2018</tspan></text></g></g><g fill="#000000" font-weight="Bold" font-size="23px" transform="translate(1084.538,0)"><g transform="translate(-23,10)" style="user-select: none;"><text x="23px" y="25" overflow="hidden" dy="-6.75" text-anchor="middle"><tspan>2019</tspan></text></g></g><g fill="#000000" font-weight="Bold" font-size="23px" transform="translate(1178.848,0)"><g transform="translate(-23,10)" style="user-select: none;"><text x="23px" y="25" overflow="hidden" dy="-6.75" text-anchor="middle"><tspan>2020</tspan></text></g></g></g></g><g stroke-opacity="0.07" stroke="#000000" fill="none" display="none" transform="translate(1226,-134)" opacity="0" visibility="hidden" aria-hidden="true"><path transform="translate(-0.5,-0.5)" d=" M0,0  L0,134 "/></g><g fill="#000000" transform="translate(613,45)"><g display="none"/></g></g></g></g></g></g></g><g role="group" aria-label="Legend" transform="translate(0,179)"><g><g style="cursor: pointer;" focusable="true" tabindex="0" role="switch" aria-controls="id-267" aria-labelledby="id-267" aria-checked="true" transform="translate(482,0)"><g fill="#ffffff" fill-opacity="0"><rect width="106" height="41"/></g><g transform="translate(0,8)"><g style="pointer-events: none;" fill="#08da94" transform="translate(0,1)"><g fill="#ffffff" fill-opacity="0" stroke-opacity="0"><rect width="23" height="23"/></g><g><g fill="#08da94" fill-opacity="1" stroke="#86ce86" stroke-opacity="1" stroke-width="0"><path d="M3,0 L20,0 a3,3 0 0 1 3,3 L23,20 a3,3 0 0 1 -3,3 L3,23 a3,3 0 0 1 -3,-3 L0,3 a3,3 0 0 1 3,-3 Z"/></g></g></g><g fill="#000000" style="pointer-events: none;" font-size="23px" aria-label="ACXIX" transform="translate(28,0)"><g style="user-select: none;"><text x="0" y="25" dy="-6.75"><tspan>ACXIX</tspan></text></g></g><g fill="#000000" style="pointer-events: none;" display="none"><g display="none"/></g></g></g><g style="cursor: pointer;" focusable="true" tabindex="0" role="switch" aria-controls="id-282" aria-labelledby="id-282" aria-checked="true" transform="translate(608,0)"><g fill="#ffffff" fill-opacity="0"><rect width="210" height="41"/></g><g transform="translate(0,8)"><g style="pointer-events: none;" fill="#2d7abf" transform="translate(0,1)"><g fill="#ffffff" fill-opacity="0" stroke-opacity="0"><rect width="23" height="23"/></g><g><g fill="#2d7abf" fill-opacity="1" stroke="#0975da" stroke-opacity="1" stroke-width="0"><path d="M3,0 L20,0 a3,3 0 0 1 3,3 L23,20 a3,3 0 0 1 -3,3 L3,23 a3,3 0 0 1 -3,-3 L0,3 a3,3 0 0 1 3,-3 Z"/></g></g></g><g fill="#000000" style="pointer-events: none;" font-size="23px" aria-label="S&amp;P 500 TR Index" transform="translate(28,0)"><g style="user-select: none;"><text x="0" y="25" dy="-6.75"><tspan>S&amp;P 500 TR Index</tspan></text></g></g><g fill="#000000" style="pointer-events: none;" display="none"><g display="none"/></g></g></g></g></g></g></g></g></g><g><g><g role="tooltip" visibility="hidden" opacity="0"><g fill="#ffffff" style="pointer-events: none;" fill-opacity="0.9" stroke-width="1" stroke-opacity="1" stroke="#ffffff" filter="url(#filter-id-195)" transform="translate(0,6)"><path d="M3,0 L3,0 L0,-6 L13,0 L21,0 a3,3 0 0 1 3,3 L24,8 a3,3 0 0 1 -3,3 L3,11 a3,3 0 0 1 -3,-3 L0,3 a3,3 0 0 1 3,-3"/></g><g><g fill="#ffffff" style="pointer-events: none;" transform="translate(12,6)"><g transform="translate(0,7)" display="none"/></g></g></g><g visibility="hidden" style="pointer-events: none;" display="none"><g fill="#ffffff" opacity="1"><rect width="1330" height="250"/></g><g><g transform="translate(634,77)"><g><g stroke-opacity="1" fill="#f3f3f3" fill-opacity="0.8"><g><g><path d=" M53,0  a53,53,0,0,1,-106,0 a53,53,0,0,1,106,0 M42,0  a42,42,0,0,0,-84,0 a42,42,0,0,0,84,0 L42,0 "/></g></g></g><g stroke-opacity="1" fill="#000000" fill-opacity="0.2"><g><g><path d=" M50,0  a50,50,0,0,1,-100,0 a50,50,0,0,1,100,0 M45,0  a45,45,0,0,0,-90,0 a45,45,0,0,0,90,0 L45,0 "/></g></g></g><g fill="#000000" fill-opacity="0.4"><g style="user-select: none;" transform="translate(0,0)"><text x="0px" y="0" dy="0" text-anchor="middle"><tspan>100%</tspan></text></g></g></g></g></g></g><g opacity="0.3" style="cursor: pointer;" aria-labelledby="id-206-title" filter="url(#filter-id-206)" transform="translate(0,229)"><g fill="#ffffff" opacity="0"><rect width="66" height="21"/></g><g><g shape-rendering="auto" fill="none" stroke-opacity="1" stroke-width="1.7999999999999998" stroke="#3cabff"><path d=" M15,15  C17.4001,15 22.7998,15.0001 27,15 C31.2002,14.9999 33.2999,6 36,6 C38.7001,6 38.6999,10.5 40.5,10.5 C42.3001,10.5 42.2999,6 45,6 C47.7001,6 50.9999,14.9999 54,15 C57.0002,15.0001 58.7999,15 60,15"/></g><g shape-rendering="auto" fill="none" stroke-opacity="1" stroke-width="1.7999999999999998" stroke="url(#gradient-id-209)"><path d=" M6,15  C8.2501,15 9.7498,15.0001 15,15 C20.2502,14.9999 20.7748,3.6 27,3.6 C33.2252,3.6 33.8998,14.9999 39.9,15 C45.9002,15.0001 45.9748,15 51,15 C56.0252,15 57.7499,15 60,15"/></g></g><title id="id-206-title">Chart created using amCharts library</title></g><g role="tooltip" visibility="hidden" opacity="0"><g fill="#000000" style="pointer-events: none;" fill-opacity="1" stroke-width="1" stroke-opacity="1" stroke="#000000" transform="translate(89,149)"><path d="M0,0 L20,0 a0,0 0 0 1 0,0 L20,10 a0,0 0 0 1 -0,0 L0,10 a0,0 0 0 1 -0,-0 L0,0 a0,0 0 0 1 0,-0"/></g><g><g fill="#ffffff" style="pointer-events: none;" transform="translate(99,149)"><g transform="translate(0,5)" display="none"/></g></g></g><g role="tooltip" visibility="hidden" opacity="0"><g fill="#000000" style="pointer-events: none;" fill-opacity="1" stroke-width="1" stroke-opacity="1" stroke="#000000" transform="translate(-25,15)"><path d="M0,0 L20,0 a0,0 0 0 1 0,0 L20,0 L20,0 L25,0 L20,10 L20,10 a0,0 0 0 1 -0,0 L0,10 a0,0 0 0 1 -0,-0 L0,0 a0,0 0 0 1 0,-0"/></g><g><g fill="#ffffff" style="pointer-events: none;" transform="translate(-15,15)"><g transform="translate(0,5)" display="none"/></g></g></g><g role="tooltip" visibility="hidden" opacity="0"><g fill="#ffffff" style="pointer-events: none;" fill-opacity="0.9" stroke-width="1" stroke-opacity="1" stroke="#ffffff" filter="url(#filter-id-275)" transform="translate(6,0)"><path d="M3,0 L21,0 a3,3 0 0 1 3,3 L24,8 a3,3 0 0 1 -3,3 L3,11 a3,3 0 0 1 -3,-3 L0,8 L0,8 L-6,0 L0,-2 L0,3 a3,3 0 0 1 3,-3"/></g><g><g fill="#ffffff" style="pointer-events: none;" transform="translate(18,0)"><g transform="translate(0,7)" display="none"/></g></g></g><g role="tooltip" visibility="hidden" opacity="0"><g fill="#ffffff" style="pointer-events: none;" fill-opacity="0.9" stroke-width="1" stroke-opacity="1" stroke="#ffffff" filter="url(#filter-id-290)" transform="translate(6,0)"><path d="M3,0 L21,0 a3,3 0 0 1 3,3 L24,8 a3,3 0 0 1 -3,3 L3,11 a3,3 0 0 1 -3,-3 L0,8 L0,8 L-6,0 L0,-2 L0,3 a3,3 0 0 1 3,-3"/></g><g><g fill="#ffffff" style="pointer-events: none;" transform="translate(18,0)"><g transform="translate(0,7)" display="none"/></g></g></g></g></g></g></g></svg>