<?xml version="1.0" encoding="utf-8"?><svg width="1330px" height="300px" viewBox="0 0 1330 300"  style="font-family: Source Sans Pro;font-size: 16px;" version="1.1" xmlns="http://www.w3.org/2000/svg" xmlns:xlink="http://www.w3.org/1999/xlink"><defs xmlns="http://www.w3.org/2000/svg"><clipPath id="id-334"><rect width="1330" height="300"/></clipPath><linearGradient id="gradient-id-353" x1="1%" x2="99%" y1="59%" y2="41%"><stop stop-color="#474758" offset="0"/><stop stop-color="#474758" stop-opacity="1" offset="0.75"/><stop stop-color="#3cabff" stop-opacity="1" offset="0.755"/></linearGradient><filter id="filter-id-362" filterUnits="objectBoundingBox" width="200%" height="200%" x="-50%" y="-50%"/><filter id="filter-id-383" filterUnits="objectBoundingBox" width="200%" height="200%" x="-50%" y="-50%"/><clipPath id="id-414"><path d="M0,0 L1226,0 L1226,122.93 L0,122.93 L0,0"/></clipPath><clipPath id="id-429"><path d="M0,0 L1226,0 L1226,122.93 L0,122.93 L0,0"/></clipPath><clipPath id="id-662"><rect width="1226" height="122.93"/></clipPath><filter id="filter-id-339" filterUnits="objectBoundingBox" width="200%" height="200%" x="-50%" y="-50%"><feGaussianBlur result="blurOut" in="SourceGraphic" stdDeviation="1.5"/><feOffset result="offsetBlur" dx="1" dy="1"/><feFlood flood-color="#000000" flood-opacity="0.5"/><feComposite in2="offsetBlur" operator="in"/><feMerge><feMergeNode/><feMergeNode in="SourceGraphic"/></feMerge></filter><filter id="filter-id-350" filterUnits="objectBoundingBox" width="120%" height="120%" x="-10%" y="-10%"><feColorMatrix type="saturate" values="0"/></filter><filter id="filter-id-419" filterUnits="objectBoundingBox" width="200%" height="200%" x="-50%" y="-50%"><feGaussianBlur result="blurOut" in="SourceGraphic" stdDeviation="1.5"/><feOffset result="offsetBlur" dx="1" dy="1"/><feFlood flood-color="#000000" flood-opacity="0.5"/><feComposite in2="offsetBlur" operator="in"/><feMerge><feMergeNode/><feMergeNode in="SourceGraphic"/></feMerge></filter><filter id="filter-id-434" filterUnits="objectBoundingBox" width="200%" height="200%" x="-50%" y="-50%"><feGaussianBlur result="blurOut" in="SourceGraphic" stdDeviation="1.5"/><feOffset result="offsetBlur" dx="1" dy="1"/><feFlood flood-color="#000000" flood-opacity="0.5"/><feComposite in2="offsetBlur" operator="in"/><feMerge><feMergeNode/><feMergeNode in="SourceGraphic"/></feMerge></filter></defs><g xmlns="http://www.w3.org/2000/svg"><g fill="#ffffff" fill-opacity="0"><rect width="1330" height="300"/></g><g><g role="region" clip-path="url(#id-334)" opacity="1" aria-label="Chart"><g transform="translate(15,15)"><g><g><g><g><g><g><g transform="translate(74,0)"><g fill="#ffffff" fill-opacity="0"><rect width="1226" height="122.93"/></g><g><g><g/></g><g><g><g stroke-opacity="0.2" stroke="#000000" fill="none" transform="translate(1226,0)"><path d=" M0,0  L0,122.93 " transform="translate(-0.5,-0.5)"/></g><g stroke-opacity="0.2" stroke="#000000" fill="none"><path d=" M0,0  L0,122.93 " transform="translate(-0.5,-0.5)"/></g><g stroke-opacity="0.2" stroke="#000000" fill="none" transform="translate(45,0)"><path d=" M0,0  L0,122.93 " transform="translate(-0.5,-0.5)"/></g><g stroke-opacity="0.2" stroke="#000000" fill="none" transform="translate(91,0)"><path d=" M0,0  L0,122.93 " transform="translate(-0.5,-0.5)"/></g><g stroke-opacity="0.2" stroke="#000000" fill="none" transform="translate(136,0)"><path d=" M0,0  L0,122.93 " transform="translate(-0.5,-0.5)"/></g><g stroke-opacity="0.2" stroke="#000000" fill="none" transform="translate(182,0)"><path d=" M0,0  L0,122.93 " transform="translate(-0.5,-0.5)"/></g><g stroke-opacity="0.2" stroke="#000000" fill="none" transform="translate(227,0)"><path d=" M0,0  L0,122.93 " transform="translate(-0.5,-0.5)"/></g><g stroke-opacity="0.2" stroke="#000000" fill="none" transform="translate(272,0)"><path d=" M0,0  L0,122.93 " transform="translate(-0.5,-0.5)"/></g><g stroke-opacity="0.2" stroke="#000000" fill="none" transform="translate(318,0)"><path d=" M0,0  L0,122.93 " transform="translate(-0.5,-0.5)"/></g><g stroke-opacity="0.2" stroke="#000000" fill="none" transform="translate(363,0)"><path d=" M0,0  L0,122.93 " transform="translate(-0.5,-0.5)"/></g><g stroke-opacity="0.2" stroke="#000000" fill="none" transform="translate(409,0)"><path d=" M0,0  L0,122.93 " transform="translate(-0.5,-0.5)"/></g><g stroke-opacity="0.2" stroke="#000000" fill="none" transform="translate(454,0)"><path d=" M0,0  L0,122.93 " transform="translate(-0.5,-0.5)"/></g><g stroke-opacity="0.2" stroke="#000000" fill="none" transform="translate(499,0)"><path d=" M0,0  L0,122.93 " transform="translate(-0.5,-0.5)"/></g><g stroke-opacity="0.2" stroke="#000000" fill="none" transform="translate(545,0)"><path d=" M0,0  L0,122.93 " transform="translate(-0.5,-0.5)"/></g><g stroke-opacity="0.2" stroke="#000000" fill="none" transform="translate(590,0)"><path d=" M0,0  L0,122.93 " transform="translate(-0.5,-0.5)"/></g><g stroke-opacity="0.2" stroke="#000000" fill="none" transform="translate(636,0)"><path d=" M0,0  L0,122.93 " transform="translate(-0.5,-0.5)"/></g><g stroke-opacity="0.2" stroke="#000000" fill="none" transform="translate(681,0)"><path d=" M0,0  L0,122.93 " transform="translate(-0.5,-0.5)"/></g><g stroke-opacity="0.2" stroke="#000000" fill="none" transform="translate(727,0)"><path d=" M0,0  L0,122.93 " transform="translate(-0.5,-0.5)"/></g><g stroke-opacity="0.2" stroke="#000000" fill="none" transform="translate(772,0)"><path d=" M0,0  L0,122.93 " transform="translate(-0.5,-0.5)"/></g><g stroke-opacity="0.2" stroke="#000000" fill="none" transform="translate(817,0)"><path d=" M0,0  L0,122.93 " transform="translate(-0.5,-0.5)"/></g><g stroke-opacity="0.2" stroke="#000000" fill="none" transform="translate(863,0)"><path d=" M0,0  L0,122.93 " transform="translate(-0.5,-0.5)"/></g><g stroke-opacity="0.2" stroke="#000000" fill="none" transform="translate(908,0)"><path d=" M0,0  L0,122.93 " transform="translate(-0.5,-0.5)"/></g><g stroke-opacity="0.2" stroke="#000000" fill="none" transform="translate(954,0)"><path d=" M0,0  L0,122.93 " transform="translate(-0.5,-0.5)"/></g><g stroke-opacity="0.2" stroke="#000000" fill="none" transform="translate(999,0)"><path d=" M0,0  L0,122.93 " transform="translate(-0.5,-0.5)"/></g><g stroke-opacity="0.2" stroke="#000000" fill="none" transform="translate(1044,0)"><path d=" M0,0  L0,122.93 " transform="translate(-0.5,-0.5)"/></g><g stroke-opacity="0.2" stroke="#000000" fill="none" transform="translate(1090,0)"><path d=" M0,0  L0,122.93 " transform="translate(-0.5,-0.5)"/></g><g stroke-opacity="0.2" stroke="#000000" fill="none" transform="translate(1135,0)"><path d=" M0,0  L0,122.93 " transform="translate(-0.5,-0.5)"/></g><g stroke-opacity="0.2" stroke="#000000" fill="none" transform="translate(1181,0)"><path d=" M0,0  L0,122.93 " transform="translate(-0.5,-0.5)"/></g></g></g><g><g><g role="group" stroke-opacity="0" fill-opacity="1" stroke="#86ce86" aria-label="ACXIX" stroke-width="0" id="id-411"><g><g clip-path="url(#id-414)"><g><g><g><g stroke-opacity="1" fill="#08da94" fill-opacity="1" stroke="#86ce86" stroke-width="0" role="listitem" transform="translate(4.536,60.236)"><g><g><path d="M0,0 L18.169,0 a0,0 0 0 1 0,0 L18.169,1.229 a0,0 0 0 1 -0,0 L0,1.229 a0,0 0 0 1 -0,-0 L0,0 a0,0 0 0 1 0,-0 Z"/></g></g></g><g stroke-opacity="1" fill="#08da94" fill-opacity="1" stroke="#86ce86" stroke-width="0" role="listitem" transform="translate(49.947,61.465)"><g><g><path d="M0,0 L18.169,0 a0,0 0 0 1 0,0 L18.169,16.565 a0,0 0 0 1 -0,0 L0,16.565 a0,0 0 0 1 -0,-0 L0,0 a0,0 0 0 1 0,-0 Z"/></g></g></g><g stroke-opacity="1" fill="#08da94" fill-opacity="1" stroke="#86ce86" stroke-width="0" role="listitem" transform="translate(95.358,58.976)"><g><g><path d="M0,0 L18.157,0 a0,0 0 0 1 0,0 L18.157,2.489 a0,0 0 0 1 -0,0 L0,2.489 a0,0 0 0 1 -0,-0 L0,0 a0,0 0 0 1 0,-0 Z"/></g></g></g><g stroke-opacity="1" fill="#08da94" fill-opacity="1" stroke="#86ce86" stroke-width="0" role="listitem" transform="translate(140.757,60.82)"><g><g><path d="M0,0 L18.169,0 a0,0 0 0 1 0,0 L18.169,0.645 a0,0 0 0 1 -0,0 L0,0.645 a0,0 0 0 1 -0,-0 L0,0 a0,0 0 0 1 0,-0 Z"/></g></g></g><g stroke-opacity="1" fill="#08da94" fill-opacity="1" stroke="#86ce86" stroke-width="0" role="listitem" transform="translate(186.168,61.465)"><g><g><path d="M0,0 L18.169,0 a0,0 0 0 1 0,0 L18.169,9.558 a0,0 0 0 1 -0,0 L0,9.558 a0,0 0 0 1 -0,-0 L0,0 a0,0 0 0 1 0,-0 Z"/></g></g></g><g stroke-opacity="1" fill="#08da94" fill-opacity="1" stroke="#86ce86" stroke-width="0" role="listitem" transform="translate(231.579,41.796)"><g><g><path d="M0,0 L18.157,0 a0,0 0 0 1 0,0 L18.157,19.669 a0,0 0 0 1 -0,0 L0,19.669 a0,0 0 0 1 -0,-0 L0,0 a0,0 0 0 1 0,-0 Z"/></g></g></g><g stroke-opacity="1" fill="#08da94" fill-opacity="1" stroke="#86ce86" stroke-width="0" role="listitem" transform="translate(276.99,60.174)"><g><g><path d="M0,0 L18.157,0 a0,0 0 0 1 0,0 L18.157,1.291 a0,0 0 0 1 -0,0 L0,1.291 a0,0 0 0 1 -0,-0 L0,0 a0,0 0 0 1 0,-0 Z"/></g></g></g><g stroke-opacity="1" fill="#08da94" fill-opacity="1" stroke="#86ce86" stroke-width="0" role="listitem" transform="translate(322.389,61.465)"><g><g><path d="M0,0 L18.169,0 a0,0 0 0 1 0,0 L18.169,11.34 a0,0 0 0 1 -0,0 L0,11.34 a0,0 0 0 1 -0,-0 L0,0 a0,0 0 0 1 0,-0 Z"/></g></g></g><g stroke-opacity="1" fill="#08da94" fill-opacity="1" stroke="#86ce86" stroke-width="0" role="listitem" transform="translate(367.8,61.465)"><g><g><path d="M0,0 L18.157,0 a0,0 0 0 1 0,0 L18.157,12.201 a0,0 0 0 1 -0,0 L0,12.201 a0,0 0 0 1 -0,-0 L0,0 a0,0 0 0 1 0,-0 Z"/></g></g></g><g stroke-opacity="1" fill="#08da94" fill-opacity="1" stroke="#86ce86" stroke-width="0" role="listitem" transform="translate(413.211,39.092)"><g><g><path d="M0,0 L18.157,0 a0,0 0 0 1 0,0 L18.157,22.373 a0,0 0 0 1 -0,0 L0,22.373 a0,0 0 0 1 -0,-0 L0,0 a0,0 0 0 1 0,-0 Z"/></g></g></g><g stroke-opacity="1" fill="#08da94" fill-opacity="1" stroke="#86ce86" stroke-width="0" role="listitem" transform="translate(458.61,61.465)"><g><g><path d="M0,0 L18.169,0 a0,0 0 0 1 0,0 L18.169,12.047 a0,0 0 0 1 -0,0 L0,12.047 a0,0 0 0 1 -0,-0 L0,0 a0,0 0 0 1 0,-0 Z"/></g></g></g><g stroke-opacity="1" fill="#08da94" fill-opacity="1" stroke="#86ce86" stroke-width="0" role="listitem" transform="translate(504.021,61.465)"><g><g><path d="M0,0 L18.169,0 a0,0 0 0 1 0,0 L18.169,4.395 a0,0 0 0 1 -0,0 L0,4.395 a0,0 0 0 1 -0,-0 L0,0 a0,0 0 0 1 0,-0 Z"/></g></g></g><g stroke-opacity="1" fill="#08da94" fill-opacity="1" stroke="#86ce86" stroke-width="0" role="listitem" transform="translate(549.432,61.465)"><g><g><path d="M0,0 L18.157,0 a0,0 0 0 1 0,0 L18.157,2.459 a0,0 0 0 1 -0,0 L0,2.459 a0,0 0 0 1 -0,-0 L0,0 a0,0 0 0 1 0,-0 Z"/></g></g></g><g stroke-opacity="1" fill="#08da94" fill-opacity="1" stroke="#86ce86" stroke-width="0" role="listitem" transform="translate(594.843,61.465)"><g><g><path d="M0,0 L18.157,0 a0,0 0 0 1 0,0 L18.157,9.773 a0,0 0 0 1 -0,0 L0,9.773 a0,0 0 0 1 -0,-0 L0,0 a0,0 0 0 1 0,-0 Z"/></g></g></g><g stroke-opacity="1" fill="#08da94" fill-opacity="1" stroke="#86ce86" stroke-width="0" role="listitem" transform="translate(640.242,61.465)"><g><g><path d="M0,0 L18.169,0 a0,0 0 0 1 0,0 L18.169,3.995 a0,0 0 0 1 -0,0 L0,3.995 a0,0 0 0 1 -0,-0 L0,0 a0,0 0 0 1 0,-0 Z"/></g></g></g><g stroke-opacity="1" fill="#08da94" fill-opacity="1" stroke="#86ce86" stroke-width="0" role="listitem" transform="translate(685.653,59.191)"><g><g><path d="M0,0 L18.157,0 a0,0 0 0 1 0,0 L18.157,2.274 a0,0 0 0 1 -0,0 L0,2.274 a0,0 0 0 1 -0,-0 L0,0 a0,0 0 0 1 0,-0 Z"/></g></g></g><g stroke-opacity="1" fill="#08da94" fill-opacity="1" stroke="#86ce86" stroke-width="0" role="listitem" transform="translate(731.064,58.576)"><g><g><path d="M0,0 L18.157,0 a0,0 0 0 1 0,0 L18.157,2.889 a0,0 0 0 1 -0,0 L0,2.889 a0,0 0 0 1 -0,-0 L0,0 a0,0 0 0 1 0,-0 Z"/></g></g></g><g stroke-opacity="1" fill="#08da94" fill-opacity="1" stroke="#86ce86" stroke-width="0" role="listitem" transform="translate(776.463,58.576)"><g><g><path d="M0,0 L18.169,0 a0,0 0 0 1 0,0 L18.169,2.889 a0,0 0 0 1 -0,0 L0,2.889 a0,0 0 0 1 -0,-0 L0,0 a0,0 0 0 1 0,-0 Z"/></g></g></g><g stroke-opacity="1" fill="#08da94" fill-opacity="1" stroke="#86ce86" stroke-width="0" role="listitem" transform="translate(821.874,43.517)"><g><g><path d="M0,0 L18.169,0 a0,0 0 0 1 0,0 L18.169,17.948 a0,0 0 0 1 -0,0 L0,17.948 a0,0 0 0 1 -0,-0 L0,0 a0,0 0 0 1 0,-0 Z"/></g></g></g><g stroke-opacity="1" fill="#08da94" fill-opacity="1" stroke="#86ce86" stroke-width="0" role="listitem" transform="translate(867.285,56.855)"><g><g><path d="M0,0 L18.157,0 a0,0 0 0 1 0,0 L18.157,4.61 a0,0 0 0 1 -0,0 L0,4.61 a0,0 0 0 1 -0,-0 L0,0 a0,0 0 0 1 0,-0 Z"/></g></g></g><g stroke-opacity="1" fill="#08da94" fill-opacity="1" stroke="#86ce86" stroke-width="0" role="listitem" transform="translate(912.683,61.465)"><g><g><path d="M0,0 L18.169,0 a0,0 0 0 1 0,0 L18.169,4.764 a0,0 0 0 1 -0,0 L0,4.764 a0,0 0 0 1 -0,-0 L0,0 a0,0 0 0 1 0,-0 Z"/></g></g></g><g stroke-opacity="1" fill="#08da94" fill-opacity="1" stroke="#86ce86" stroke-width="0" role="listitem" transform="translate(958.094,61.465)"><g><g><path d="M0,0 L18.169,0 a0,0 0 0 1 0,0 L18.169,1.967 a0,0 0 0 1 -0,0 L0,1.967 a0,0 0 0 1 -0,-0 L0,0 a0,0 0 0 1 0,-0 Z"/></g></g></g><g stroke-opacity="1" fill="#08da94" fill-opacity="1" stroke="#86ce86" stroke-width="0" role="listitem" transform="translate(1003.506,61.465)"><g><g><path d="M0,0 L18.157,0 a0,0 0 0 1 0,0 L18.157,9.773 a0,0 0 0 1 -0,0 L0,9.773 a0,0 0 0 1 -0,-0 L0,0 a0,0 0 0 1 0,-0 Z"/></g></g></g><g stroke-opacity="1" fill="#08da94" fill-opacity="1" stroke="#86ce86" stroke-width="0" role="listitem" transform="translate(1048.917,61.465)"><g><g><path d="M0,0 L18.157,0 a0,0 0 0 1 0,0 L18.157,10.818 a0,0 0 0 1 -0,0 L0,10.818 a0,0 0 0 1 -0,-0 L0,0 a0,0 0 0 1 0,-0 Z"/></g></g></g><g stroke-opacity="1" fill="#08da94" fill-opacity="1" stroke="#86ce86" stroke-width="0" role="listitem" transform="translate(1094.315,61.465)"><g><g><path d="M0,0 L18.169,0 a0,0 0 0 1 0,0 L18.169,0.891 a0,0 0 0 1 -0,0 L0,0.891 a0,0 0 0 1 -0,-0 L0,0 a0,0 0 0 1 0,-0 Z"/></g></g></g><g stroke-opacity="1" fill="#08da94" fill-opacity="1" stroke="#86ce86" stroke-width="0" role="listitem" transform="translate(1139.726,18.255)"><g><g><path d="M0,0 L18.157,0 a0,0 0 0 1 0,0 L18.157,43.21 a0,0 0 0 1 -0,0 L0,43.21 a0,0 0 0 1 -0,-0 L0,0 a0,0 0 0 1 0,-0 Z"/></g></g></g><g stroke-opacity="1" fill="#08da94" fill-opacity="1" stroke="#86ce86" stroke-width="0" role="listitem" transform="translate(1185.137,44.992)"><g><g><path d="M0,0 L18.157,0 a0,0 0 0 1 0,0 L18.157,16.473 a0,0 0 0 1 -0,0 L0,16.473 a0,0 0 0 1 -0,-0 L0,0 a0,0 0 0 1 0,-0 Z"/></g></g></g></g></g></g></g><g/></g></g><g role="group" stroke-opacity="0" fill-opacity="1" stroke="#0975da" aria-label="S&amp;P 500TR" stroke-width="0" id="id-426"><g><g clip-path="url(#id-429)"><g><g><g><g stroke-opacity="1" fill="#2d7abf" fill-opacity="1" stroke="#0975da" stroke-width="0" role="listitem" transform="translate(22.706,61.465)"><g><g><path d="M0,0 L18.157,0 a0,0 0 0 1 0,0 L18.157,51.631 a0,0 0 0 1 -0,0 L0,51.631 a0,0 0 0 1 -0,-0 L0,0 a0,0 0 0 1 0,-0 Z"/></g></g></g><g stroke-opacity="1" fill="#2d7abf" fill-opacity="1" stroke="#0975da" stroke-width="0" role="listitem" transform="translate(68.117,61.465)"><g><g><path d="M0,0 L18.157,0 a0,0 0 0 1 0,0 L18.157,37.955 a0,0 0 0 1 -0,0 L0,37.955 a0,0 0 0 1 -0,-0 L0,0 a0,0 0 0 1 0,-0 Z"/></g></g></g><g stroke-opacity="1" fill="#2d7abf" fill-opacity="1" stroke="#0975da" stroke-width="0" role="listitem" transform="translate(113.515,61.465)"><g><g><path d="M0,0 L18.169,0 a0,0 0 0 1 0,0 L18.169,32.73 a0,0 0 0 1 -0,0 L0,32.73 a0,0 0 0 1 -0,-0 L0,0 a0,0 0 0 1 0,-0 Z"/></g></g></g><g stroke-opacity="1" fill="#2d7abf" fill-opacity="1" stroke="#0975da" stroke-width="0" role="listitem" transform="translate(158.926,61.465)"><g><g><path d="M0,0 L18.157,0 a0,0 0 0 1 0,0 L18.157,27.751 a0,0 0 0 1 -0,0 L0,27.751 a0,0 0 0 1 -0,-0 L0,0 a0,0 0 0 1 0,-0 Z"/></g></g></g><g stroke-opacity="1" fill="#2d7abf" fill-opacity="1" stroke="#0975da" stroke-width="0" role="listitem" transform="translate(204.337,61.465)"><g><g><path d="M0,0 L18.157,0 a0,0 0 0 1 0,0 L18.157,27.383 a0,0 0 0 1 -0,0 L0,27.383 a0,0 0 0 1 -0,-0 L0,0 a0,0 0 0 1 0,-0 Z"/></g></g></g><g stroke-opacity="1" fill="#2d7abf" fill-opacity="1" stroke="#0975da" stroke-width="0" role="listitem" transform="translate(249.736,61.465)"><g><g><path d="M0,0 L18.169,0 a0,0 0 0 1 0,0 L18.169,25.907 a0,0 0 0 1 -0,0 L0,25.907 a0,0 0 0 1 -0,-0 L0,0 a0,0 0 0 1 0,-0 Z"/></g></g></g><g stroke-opacity="1" fill="#2d7abf" fill-opacity="1" stroke="#0975da" stroke-width="0" role="listitem" transform="translate(295.147,61.465)"><g><g><path d="M0,0 L18.169,0 a0,0 0 0 1 0,0 L18.169,25.907 a0,0 0 0 1 -0,0 L0,25.907 a0,0 0 0 1 -0,-0 L0,0 a0,0 0 0 1 0,-0 Z"/></g></g></g><g stroke-opacity="1" fill="#2d7abf" fill-opacity="1" stroke="#0975da" stroke-width="0" role="listitem" transform="translate(340.558,61.465)"><g><g><path d="M0,0 L18.157,0 a0,0 0 0 1 0,0 L18.157,25.293 a0,0 0 0 1 -0,0 L0,25.293 a0,0 0 0 1 -0,-0 L0,0 a0,0 0 0 1 0,-0 Z"/></g></g></g><g stroke-opacity="1" fill="#2d7abf" fill-opacity="1" stroke="#0975da" stroke-width="0" role="listitem" transform="translate(385.957,61.465)"><g><g><path d="M0,0 L18.169,0 a0,0 0 0 1 0,0 L18.169,24.555 a0,0 0 0 1 -0,0 L0,24.555 a0,0 0 0 1 -0,-0 L0,0 a0,0 0 0 1 0,-0 Z"/></g></g></g><g stroke-opacity="1" fill="#2d7abf" fill-opacity="1" stroke="#0975da" stroke-width="0" role="listitem" transform="translate(431.368,61.465)"><g><g><path d="M0,0 L18.169,0 a0,0 0 0 1 0,0 L18.169,22.066 a0,0 0 0 1 -0,0 L0,22.066 a0,0 0 0 1 -0,-0 L0,0 a0,0 0 0 1 0,-0 Z"/></g></g></g><g stroke-opacity="1" fill="#2d7abf" fill-opacity="1" stroke="#0975da" stroke-width="0" role="listitem" transform="translate(476.779,61.465)"><g><g><path d="M0,0 L18.157,0 a0,0 0 0 1 0,0 L18.157,21.605 a0,0 0 0 1 -0,0 L0,21.605 a0,0 0 0 1 -0,-0 L0,0 a0,0 0 0 1 0,-0 Z"/></g></g></g><g stroke-opacity="1" fill="#2d7abf" fill-opacity="1" stroke="#0975da" stroke-width="0" role="listitem" transform="translate(522.19,61.465)"><g><g><path d="M0,0 L18.157,0 a0,0 0 0 1 0,0 L18.157,21.021 a0,0 0 0 1 -0,0 L0,21.021 a0,0 0 0 1 -0,-0 L0,0 a0,0 0 0 1 0,-0 Z"/></g></g></g><g stroke-opacity="1" fill="#2d7abf" fill-opacity="1" stroke="#0975da" stroke-width="0" role="listitem" transform="translate(567.589,61.465)"><g><g><path d="M0,0 L18.169,0 a0,0 0 0 1 0,0 L18.169,19.515 a0,0 0 0 1 -0,0 L0,19.515 a0,0 0 0 1 -0,-0 L0,0 a0,0 0 0 1 0,-0 Z"/></g></g></g><g stroke-opacity="1" fill="#2d7abf" fill-opacity="1" stroke="#0975da" stroke-width="0" role="listitem" transform="translate(613,61.465)"><g><g><path d="M0,0 L18.157,0 a0,0 0 0 1 0,0 L18.157,18.532 a0,0 0 0 1 -0,0 L0,18.532 a0,0 0 0 1 -0,-0 L0,0 a0,0 0 0 1 0,-0 Z"/></g></g></g><g stroke-opacity="1" fill="#2d7abf" fill-opacity="1" stroke="#0975da" stroke-width="0" role="listitem" transform="translate(658.411,61.465)"><g><g><path d="M0,0 L18.157,0 a0,0 0 0 1 0,0 L18.157,18.47 a0,0 0 0 1 -0,0 L0,18.47 a0,0 0 0 1 -0,-0 L0,0 a0,0 0 0 1 0,-0 Z"/></g></g></g><g stroke-opacity="1" fill="#2d7abf" fill-opacity="1" stroke="#0975da" stroke-width="0" role="listitem" transform="translate(703.81,61.465)"><g><g><path d="M0,0 L18.169,0 a0,0 0 0 1 0,0 L18.169,18.44 a0,0 0 0 1 -0,0 L0,18.44 a0,0 0 0 1 -0,-0 L0,0 a0,0 0 0 1 0,-0 Z"/></g></g></g><g stroke-opacity="1" fill="#2d7abf" fill-opacity="1" stroke="#0975da" stroke-width="0" role="listitem" transform="translate(749.221,61.465)"><g><g><path d="M0,0 L18.169,0 a0,0 0 0 1 0,0 L18.169,16.688 a0,0 0 0 1 -0,0 L0,16.688 a0,0 0 0 1 -0,-0 L0,0 a0,0 0 0 1 0,-0 Z"/></g></g></g><g stroke-opacity="1" fill="#2d7abf" fill-opacity="1" stroke="#0975da" stroke-width="0" role="listitem" transform="translate(794.632,61.465)"><g><g><path d="M0,0 L18.157,0 a0,0 0 0 1 0,0 L18.157,16.073 a0,0 0 0 1 -0,0 L0,16.073 a0,0 0 0 1 -0,-0 L0,0 a0,0 0 0 1 0,-0 Z"/></g></g></g><g stroke-opacity="1" fill="#2d7abf" fill-opacity="1" stroke="#0975da" stroke-width="0" role="listitem" transform="translate(840.043,61.465)"><g><g><path d="M0,0 L18.157,0 a0,0 0 0 1 0,0 L18.157,15.243 a0,0 0 0 1 -0,0 L0,15.243 a0,0 0 0 1 -0,-0 L0,0 a0,0 0 0 1 0,-0 Z"/></g></g></g><g stroke-opacity="1" fill="#2d7abf" fill-opacity="1" stroke="#0975da" stroke-width="0" role="listitem" transform="translate(885.442,61.465)"><g><g><path d="M0,0 L18.169,0 a0,0 0 0 1 0,0 L18.169,13.86 a0,0 0 0 1 -0,0 L0,13.86 a0,0 0 0 1 -0,-0 L0,0 a0,0 0 0 1 0,-0 Z"/></g></g></g><g stroke-opacity="1" fill="#2d7abf" fill-opacity="1" stroke="#0975da" stroke-width="0" role="listitem" transform="translate(930.853,61.465)"><g><g><path d="M0,0 L18.157,0 a0,0 0 0 1 0,0 L18.157,12.846 a0,0 0 0 1 -0,0 L0,12.846 a0,0 0 0 1 -0,-0 L0,0 a0,0 0 0 1 0,-0 Z"/></g></g></g><g stroke-opacity="1" fill="#2d7abf" fill-opacity="1" stroke="#0975da" stroke-width="0" role="listitem" transform="translate(976.264,61.465)"><g><g><path d="M0,0 L18.157,0 a0,0 0 0 1 0,0 L18.157,11.678 a0,0 0 0 1 -0,0 L0,11.678 a0,0 0 0 1 -0,-0 L0,0 a0,0 0 0 1 0,-0 Z"/></g></g></g><g stroke-opacity="1" fill="#2d7abf" fill-opacity="1" stroke="#0975da" stroke-width="0" role="listitem" transform="translate(1021.663,61.465)"><g><g><path d="M0,0 L18.169,0 a0,0 0 0 1 0,0 L18.169,11.34 a0,0 0 0 1 -0,0 L0,11.34 a0,0 0 0 1 -0,-0 L0,0 a0,0 0 0 1 0,-0 Z"/></g></g></g><g stroke-opacity="1" fill="#2d7abf" fill-opacity="1" stroke="#0975da" stroke-width="0" role="listitem" transform="translate(1067.074,61.465)"><g><g><path d="M0,0 L18.169,0 a0,0 0 0 1 0,0 L18.169,11.064 a0,0 0 0 1 -0,0 L0,11.064 a0,0 0 0 1 -0,-0 L0,0 a0,0 0 0 1 0,-0 Z"/></g></g></g><g stroke-opacity="1" fill="#2d7abf" fill-opacity="1" stroke="#0975da" stroke-width="0" role="listitem" transform="translate(1112.485,61.465)"><g><g><path d="M0,0 L18.157,0 a0,0 0 0 1 0,0 L18.157,10.633 a0,0 0 0 1 -0,0 L0,10.633 a0,0 0 0 1 -0,-0 L0,0 a0,0 0 0 1 0,-0 Z"/></g></g></g><g stroke-opacity="1" fill="#2d7abf" fill-opacity="1" stroke="#0975da" stroke-width="0" role="listitem" transform="translate(1157.883,61.465)"><g><g><path d="M0,0 L18.169,0 a0,0 0 0 1 0,0 L18.169,9.988 a0,0 0 0 1 -0,0 L0,9.988 a0,0 0 0 1 -0,-0 L0,0 a0,0 0 0 1 0,-0 Z"/></g></g></g><g stroke-opacity="1" fill="#2d7abf" fill-opacity="1" stroke="#0975da" stroke-width="0" role="listitem" transform="translate(1203.294,61.465)"><g><g><path d="M0,0 L18.169,0 a0,0 0 0 1 0,0 L18.169,9.22 a0,0 0 0 1 -0,0 L0,9.22 a0,0 0 0 1 -0,-0 L0,0 a0,0 0 0 1 0,-0 Z"/></g></g></g></g></g></g></g><g/></g></g></g></g><g clip-path="url(#id-662)"><g><g fill="#08da94" stroke="#86ce86"><g/></g><g fill="#2d7abf" stroke="#0975da"><g/></g></g></g><g><g><g><g/></g><g><g/></g></g></g><g><g/></g><g><g/></g><g role="button" focusable="true" tabindex="0" opacity="0" visibility="hidden" aria-hidden="true" transform="translate(1186,-3)" aria-labelledby="id-325-title"><g fill="#6794dc" stroke="#ffffff" fill-opacity="1" stroke-opacity="0" transform="translate(0,8)"><path d="M17,0 L18,0 a17,17 0 0 1 17,17 L35,17 a17,17 0 0 1 -17,17 L17,34 a17,17 0 0 1 -17,-17 L0,17 a17,17 0 0 1 17,-17 Z"/></g><g transform="translate(9,9)"><g stroke="#ffffff" style="pointer-events: none;" transform="translate(0,8)"><path d=" M0,0  L11,0 " transform="translate(2.5,7.5)"/></g><g fill="#000000" style="pointer-events: none;" transform="translate(17,8)"><g display="none"/></g></g><title id="id-325-title">Zoom Out</title></g></g></g><g><g><g aria-hidden="true"><g><g fill="#000000" transform="translate(0,61.5) rotate(-90)"><g display="none"/></g><g stroke-opacity="0.07" stroke="#000000" fill="none" transform="translate(74,61)" opacity="1"><path transform="translate(-0.5,-0.5)" d=" M0,0  L1226,0 "/></g><g transform="translate(0,0)"><g><g fill="#000000" aria-label="L" fill-opacity="0" opacity="0" stroke-opacity="0" style="pointer-events: none;" font-weight="Bold" font-size="23px" transform="translate(74,61.465)"><g transform="translate(-62,-14.5)" style="user-select: none;"><text x="0" y="29" dy="-7.83"><tspan>-20%</tspan></text></g></g><g fill="#000000" font-weight="Bold" font-size="23px" transform="translate(74,30.733)" display="none"><g transform="translate(-55,-14.5)" style="user-select: none;"><text x="0" y="29" dy="-7.83"><tspan>10%</tspan></text></g></g><g fill="#000000" font-weight="Bold" font-size="23px" transform="translate(74,61.465)"><g transform="translate(-45,-12.5)" style="user-select: none;"><text x="0" y="25" dy="-6.75"><tspan>0%</tspan></text></g></g><g fill="#000000" font-weight="Bold" font-size="23px" transform="translate(74,92.198)" display="none"><g transform="translate(-62,-14.5)" style="user-select: none;"><text x="0" y="29" dy="-7.83"><tspan>-10%</tspan></text></g></g><g fill="#000000" font-weight="Bold" font-size="23px" transform="translate(74,122.93)"><g transform="translate(-64,-12.5)" style="user-select: none;"><text x="0" y="25" dy="-6.75"><tspan>-20%</tspan></text></g></g><g fill="#000000" font-weight="Bold" font-size="23px" transform="translate(74,-61.465)" display="none"><g transform="translate(-64,-12.5)" style="user-select: none;"><text x="0" y="25" dy="-6.75"><tspan>-30%</tspan></text></g></g><g fill="#000000" font-weight="Bold" font-size="23px" transform="translate(74,184.395)" display="none"><g transform="translate(-64,-12.5)" style="user-select: none;"><text x="0" y="25" dy="-6.75"><tspan>-40%</tspan></text></g></g><g fill="#000000" font-weight="Bold" font-size="23px" transform="translate(74,0)"><g transform="translate(-56,-12.5)" style="user-select: none;"><text x="0" y="25" dy="-6.75"><tspan>20%</tspan></text></g></g><g fill="#000000" font-weight="Bold" font-size="23px" transform="translate(74,245.86)" display="none"><g transform="translate(-56,-12.5)" style="user-select: none;"><text x="0" y="25" dy="-6.75"><tspan>30%</tspan></text></g></g></g></g><g stroke="#000000" stroke-opacity="0" fill="none" style="pointer-events: none;" transform="translate(74,0)"><path d=" M0,0  L0,122.93 " transform="translate(-0.5,-0.5)"/></g></g></g></g></g><g transform="translate(1300,0)"><g/></g></g></g><g><g transform="translate(74,0)"/></g><g transform="translate(0,122.93)"><g transform="translate(74,0)"><g aria-hidden="true"><g><g stroke="#000000" stroke-opacity="0" fill="none" style="pointer-events: none;"><path d=" M0,0  L1226,0 " transform="translate(-0.5,-0.5)"/></g><g transform="translate(0,35.709)"><g><g fill="#000000" aria-label="L" fill-opacity="0" opacity="0" stroke-opacity="0" style="pointer-events: none;" font-weight="Bold" font-size="23px" transform="translate(-20,0) rotate(-45)"><g transform="translate(-40.5,10)" style="user-select: none;"><text x="0" y="29" dy="-7.83"><tspan>01/2015</tspan></text></g></g><g fill="#000000" font-weight="Bold" font-size="23px" transform="translate(1206,0) rotate(-45)"><g transform="translate(0,10)" display="none"/></g><g fill="#000000" font-weight="Bold" font-size="23px" transform="translate(-20,0) rotate(-45)"><g transform="translate(-40.5,10)" style="user-select: none;"><text x="0" y="29" dy="-7.83"><tspan>10/2008</tspan></text></g></g><g fill="#000000" font-weight="Bold" font-size="23px" transform="translate(25.411,0) rotate(-45)"><g transform="translate(-40.5,10)" style="user-select: none;"><text x="0" y="29" dy="-7.83"><tspan>03/2020</tspan></text></g></g><g fill="#000000" font-weight="Bold" font-size="23px" transform="translate(70.81,0) rotate(-45)"><g transform="translate(-40.5,10)" style="user-select: none;"><text x="0" y="29" dy="-7.83"><tspan>02/2009</tspan></text></g></g><g fill="#000000" font-weight="Bold" font-size="23px" transform="translate(116.221,0) rotate(-45)"><g transform="translate(-40.5,10)" style="user-select: none;"><text x="0" y="29" dy="-7.83"><tspan>12/2018</tspan></text></g></g><g fill="#000000" font-weight="Bold" font-size="23px" transform="translate(161.632,0) rotate(-45)"><g transform="translate(-40.5,10)" style="user-select: none;"><text x="0" y="29" dy="-7.83"><tspan>09/2008</tspan></text></g></g><g fill="#000000" font-weight="Bold" font-size="23px" transform="translate(207.043,0) rotate(-45)"><g transform="translate(-40.5,10)" style="user-select: none;"><text x="0" y="29" dy="-7.83"><tspan>06/2008</tspan></text></g></g><g fill="#000000" font-weight="Bold" font-size="23px" transform="translate(252.442,0) rotate(-45)"><g transform="translate(-40.5,10)" style="user-select: none;"><text x="0" y="29" dy="-7.83"><tspan>01/2009</tspan></text></g></g><g fill="#000000" font-weight="Bold" font-size="23px" transform="translate(297.853,0) rotate(-45)"><g transform="translate(-40.5,10)" style="user-select: none;"><text x="0" y="29" dy="-7.83"><tspan>02/2020</tspan></text></g></g><g fill="#000000" font-weight="Bold" font-size="23px" transform="translate(343.264,0) rotate(-45)"><g transform="translate(-40.5,10)" style="user-select: none;"><text x="0" y="29" dy="-7.83"><tspan>05/2010</tspan></text></g></g><g fill="#000000" font-weight="Bold" font-size="23px" transform="translate(388.663,0) rotate(-45)"><g transform="translate(-40.5,10)" style="user-select: none;"><text x="0" y="29" dy="-7.83"><tspan>11/2008</tspan></text></g></g><g fill="#000000" font-weight="Bold" font-size="23px" transform="translate(434.074,0) rotate(-45)"><g transform="translate(-40.5,10)" style="user-select: none;"><text x="0" y="29" dy="-7.83"><tspan>09/2011</tspan></text></g></g><g fill="#000000" font-weight="Bold" font-size="23px" transform="translate(479.485,0) rotate(-45)"><g transform="translate(-40.5,10)" style="user-select: none;"><text x="0" y="29" dy="-7.83"><tspan>10/2018</tspan></text></g></g><g fill="#000000" font-weight="Bold" font-size="23px" transform="translate(524.883,0) rotate(-45)"><g transform="translate(-40.5,10)" style="user-select: none;"><text x="0" y="29" dy="-7.83"><tspan>05/2019</tspan></text></g></g><g fill="#000000" font-weight="Bold" font-size="23px" transform="translate(570.294,0) rotate(-45)"><g transform="translate(-40.5,10)" style="user-select: none;"><text x="0" y="29" dy="-7.83"><tspan>08/2015</tspan></text></g></g><g fill="#000000" font-weight="Bold" font-size="23px" transform="translate(615.706,0) rotate(-45)"><g transform="translate(-40.5,10)" style="user-select: none;"><text x="0" y="29" dy="-7.83"><tspan>05/2012</tspan></text></g></g><g fill="#000000" font-weight="Bold" font-size="23px" transform="translate(661.117,0) rotate(-45)"><g transform="translate(-40.5,10)" style="user-select: none;"><text x="0" y="29" dy="-7.83"><tspan>01/2008</tspan></text></g></g><g fill="#000000" font-weight="Bold" font-size="23px" transform="translate(706.515,0) rotate(-45)"><g transform="translate(-40.5,10)" style="user-select: none;"><text x="0" y="29" dy="-7.83"><tspan>08/2011</tspan></text></g></g><g fill="#000000" font-weight="Bold" font-size="23px" transform="translate(751.926,0) rotate(-45)"><g transform="translate(-40.5,10)" style="user-select: none;"><text x="0" y="29" dy="-7.83"><tspan>06/2010</tspan></text></g></g><g fill="#000000" font-weight="Bold" font-size="23px" transform="translate(797.337,0) rotate(-45)"><g transform="translate(-40.5,10)" style="user-select: none;"><text x="0" y="29" dy="-7.83"><tspan>01/2016</tspan></text></g></g><g fill="#000000" font-weight="Bold" font-size="23px" transform="translate(842.736,0) rotate(-45)"><g transform="translate(-40.5,10)" style="user-select: none;"><text x="0" y="29" dy="-7.83"><tspan>08/2010</tspan></text></g></g><g fill="#000000" font-weight="Bold" font-size="23px" transform="translate(888.147,0) rotate(-45)"><g transform="translate(-40.5,10)" style="user-select: none;"><text x="0" y="29" dy="-7.83"><tspan>11/2007</tspan></text></g></g><g fill="#000000" font-weight="Bold" font-size="23px" transform="translate(933.558,0) rotate(-45)"><g transform="translate(-40.5,10)" style="user-select: none;"><text x="0" y="29" dy="-7.83"><tspan>09/2020</tspan></text></g></g><g fill="#000000" font-weight="Bold" font-size="23px" transform="translate(978.957,0) rotate(-45)"><g transform="translate(-40.5,10)" style="user-select: none;"><text x="0" y="29" dy="-7.83"><tspan>02/2018</tspan></text></g></g><g fill="#000000" font-weight="Bold" font-size="23px" transform="translate(1024.368,0) rotate(-45)"><g transform="translate(-40.5,10)" style="user-select: none;"><text x="0" y="29" dy="-7.83"><tspan>01/2010</tspan></text></g></g><g fill="#000000" font-weight="Bold" font-size="23px" transform="translate(1069.779,0) rotate(-45)"><g transform="translate(-40.5,10)" style="user-select: none;"><text x="0" y="29" dy="-7.83"><tspan>01/2014</tspan></text></g></g><g fill="#000000" font-weight="Bold" font-size="23px" transform="translate(1115.19,0) rotate(-45)"><g transform="translate(-40.5,10)" style="user-select: none;"><text x="0" y="29" dy="-7.83"><tspan>02/2008</tspan></text></g></g><g fill="#000000" font-weight="Bold" font-size="23px" transform="translate(1160.589,0) rotate(-45)"><g transform="translate(-40.5,10)" style="user-select: none;"><text x="0" y="29" dy="-7.83"><tspan>01/2015</tspan></text></g></g></g></g><g stroke-opacity="0.07" stroke="#000000" fill="none" display="none" transform="translate(1226,-123)" opacity="0" visibility="hidden" aria-hidden="true"><path transform="translate(-0.5,-0.5)" d=" M0,0  L0,122.93 "/></g><g fill="#000000" transform="translate(613,106.1)"><g display="none"/></g></g></g></g></g></g></g><g role="group" aria-label="Legend" transform="translate(0,229)"><g><g style="cursor: pointer;" focusable="true" tabindex="0" role="switch" aria-controls="id-411" aria-labelledby="id-411" aria-checked="true" transform="translate(513.5,0)"><g fill="#ffffff" fill-opacity="0"><rect width="106" height="41"/></g><g transform="translate(0,8)"><g style="pointer-events: none;" fill="#08da94" transform="translate(0,1)"><g fill="#ffffff" fill-opacity="0" stroke-opacity="0"><rect width="23" height="23"/></g><g><g fill="#08da94" fill-opacity="1" stroke="#86ce86" stroke-opacity="1" stroke-width="0"><path d="M3,0 L20,0 a3,3 0 0 1 3,3 L23,20 a3,3 0 0 1 -3,3 L3,23 a3,3 0 0 1 -3,-3 L0,3 a3,3 0 0 1 3,-3 Z"/></g></g></g><g fill="#000000" style="pointer-events: none;" font-size="23px" aria-label="ACXIX" transform="translate(28,0)"><g style="user-select: none;"><text x="0" y="25" dy="-6.75"><tspan>ACXIX</tspan></text></g></g><g fill="#000000" style="pointer-events: none;" display="none"><g display="none"/></g></g></g><g style="cursor: pointer;" focusable="true" tabindex="0" role="switch" aria-controls="id-426" aria-labelledby="id-426" aria-checked="true" transform="translate(639.5,0)"><g fill="#ffffff" fill-opacity="0"><rect width="147" height="41"/></g><g transform="translate(0,8)"><g style="pointer-events: none;" fill="#2d7abf" transform="translate(0,1)"><g fill="#ffffff" fill-opacity="0" stroke-opacity="0"><rect width="23" height="23"/></g><g><g fill="#2d7abf" fill-opacity="1" stroke="#0975da" stroke-opacity="1" stroke-width="0"><path d="M3,0 L20,0 a3,3 0 0 1 3,3 L23,20 a3,3 0 0 1 -3,3 L3,23 a3,3 0 0 1 -3,-3 L0,3 a3,3 0 0 1 3,-3 Z"/></g></g></g><g fill="#000000" style="pointer-events: none;" font-size="23px" aria-label="S&amp;P 500TR" transform="translate(28,0)"><g style="user-select: none;"><text x="0" y="25" dy="-6.75"><tspan>S&amp;P 500TR</tspan></text></g></g><g fill="#000000" style="pointer-events: none;" display="none"><g display="none"/></g></g></g></g></g></g></g></g></g><g><g><g role="tooltip" visibility="hidden" opacity="0"><g fill="#ffffff" style="pointer-events: none;" fill-opacity="0.9" stroke-width="1" stroke-opacity="1" stroke="#ffffff" filter="url(#filter-id-339)" transform="translate(0,6)"><path d="M3,0 L3,0 L0,-6 L13,0 L21,0 a3,3 0 0 1 3,3 L24,8 a3,3 0 0 1 -3,3 L3,11 a3,3 0 0 1 -3,-3 L0,3 a3,3 0 0 1 3,-3"/></g><g><g fill="#ffffff" style="pointer-events: none;" transform="translate(12,6)"><g transform="translate(0,7)" display="none"/></g></g></g><g visibility="hidden" style="pointer-events: none;" display="none"><g fill="#ffffff" opacity="1"><rect width="1330" height="300"/></g><g><g transform="translate(634,77)"><g><g stroke-opacity="1" fill="#f3f3f3" fill-opacity="0.8"><g><g><path d=" M53,0  a53,53,0,0,1,-106,0 a53,53,0,0,1,106,0 M42,0  a42,42,0,0,0,-84,0 a42,42,0,0,0,84,0 L42,0 "/></g></g></g><g stroke-opacity="1" fill="#000000" fill-opacity="0.2"><g><g><path d=" M50,0  a50,50,0,0,1,-100,0 a50,50,0,0,1,100,0 M45,0  a45,45,0,0,0,-90,0 a45,45,0,0,0,90,0 L45,0 "/></g></g></g><g fill="#000000" fill-opacity="0.4"><g style="user-select: none;" transform="translate(0,0)"><text x="0px" y="0" dy="0" text-anchor="middle"><tspan>100%</tspan></text></g></g></g></g></g></g><g opacity="0.3" style="cursor: pointer;" aria-labelledby="id-350-title" filter="url(#filter-id-350)" transform="translate(0,279)"><g fill="#ffffff" opacity="0"><rect width="66" height="21"/></g><g><g shape-rendering="auto" fill="none" stroke-opacity="1" stroke-width="1.7999999999999998" stroke="#3cabff"><path d=" M15,15  C17.4001,15 22.7998,15.0001 27,15 C31.2002,14.9999 33.2999,6 36,6 C38.7001,6 38.6999,10.5 40.5,10.5 C42.3001,10.5 42.2999,6 45,6 C47.7001,6 50.9999,14.9999 54,15 C57.0002,15.0001 58.7999,15 60,15"/></g><g shape-rendering="auto" fill="none" stroke-opacity="1" stroke-width="1.7999999999999998" stroke="url(#gradient-id-353)"><path d=" M6,15  C8.2501,15 9.7498,15.0001 15,15 C20.2502,14.9999 20.7748,3.6 27,3.6 C33.2252,3.6 33.8998,14.9999 39.9,15 C45.9002,15.0001 45.9748,15 51,15 C56.0252,15 57.7499,15 60,15"/></g></g><title id="id-350-title">Chart created using amCharts library</title></g><g role="tooltip" visibility="hidden" opacity="0"><g fill="#000000" style="pointer-events: none;" fill-opacity="1" stroke-width="1" stroke-opacity="1" stroke="#000000" transform="translate(89,137.9)"><path d="M0,0 L20,0 a0,0 0 0 1 0,0 L20,10 a0,0 0 0 1 -0,0 L0,10 a0,0 0 0 1 -0,-0 L0,10 L0,10 L0,0.030000000000001137 L0,0 L0,0 a0,0 0 0 1 0,-0"/></g><g><g fill="#ffffff" style="pointer-events: none;" transform="translate(99,137.9)"><g transform="translate(0,5)" display="none"/></g></g></g><g role="tooltip" visibility="hidden" opacity="0"><g fill="#000000" style="pointer-events: none;" fill-opacity="1" stroke-width="1" stroke-opacity="1" stroke="#000000" transform="translate(-25,15)"><path d="M0,0 L20,0 a0,0 0 0 1 0,0 L20,0 L20,0 L25,0 L20,10 L20,10 a0,0 0 0 1 -0,0 L0,10 a0,0 0 0 1 -0,-0 L0,0 a0,0 0 0 1 0,-0"/></g><g><g fill="#ffffff" style="pointer-events: none;" transform="translate(-15,15)"><g transform="translate(0,5)" display="none"/></g></g></g><g role="tooltip" visibility="hidden" opacity="0"><g fill="#ffffff" style="pointer-events: none;" fill-opacity="0.9" stroke-width="1" stroke-opacity="1" stroke="#ffffff" filter="url(#filter-id-419)" transform="translate(6,0)"><path d="M3,0 L21,0 a3,3 0 0 1 3,3 L24,8 a3,3 0 0 1 -3,3 L3,11 a3,3 0 0 1 -3,-3 L0,8 L0,8 L-6,0 L0,-2 L0,3 a3,3 0 0 1 3,-3"/></g><g><g fill="#ffffff" style="pointer-events: none;" transform="translate(18,0)"><g transform="translate(0,7)" display="none"/></g></g></g><g role="tooltip" visibility="hidden" opacity="0"><g fill="#ffffff" style="pointer-events: none;" fill-opacity="0.9" stroke-width="1" stroke-opacity="1" stroke="#ffffff" filter="url(#filter-id-434)" transform="translate(6,0)"><path d="M3,0 L21,0 a3,3 0 0 1 3,3 L24,8 a3,3 0 0 1 -3,3 L3,11 a3,3 0 0 1 -3,-3 L0,8 L0,8 L-6,0 L0,-2 L0,3 a3,3 0 0 1 3,-3"/></g><g><g fill="#ffffff" style="pointer-events: none;" transform="translate(18,0)"><g transform="translate(0,7)" display="none"/></g></g></g></g></g></g></g></svg>