<?xml version="1.0" encoding="utf-8"?><svg width="1330px" height="400px" viewBox="0 0 1330 400"  style="font-family: Source Sans Pro;font-size: 16px;" version="1.1" xmlns="http://www.w3.org/2000/svg" xmlns:xlink="http://www.w3.org/1999/xlink"><defs xmlns="http://www.w3.org/2000/svg"><clipPath id="id-45"><rect width="1330" height="400"/></clipPath><linearGradient id="gradient-id-64" x1="1%" x2="99%" y1="59%" y2="41%"><stop stop-color="#474758" offset="0"/><stop stop-color="#474758" stop-opacity="1" offset="0.75"/><stop stop-color="#3cabff" stop-opacity="1" offset="0.755"/></linearGradient><filter id="filter-id-73" filterUnits="objectBoundingBox" width="200%" height="200%" x="-50%" y="-50%"/><filter id="filter-id-94" filterUnits="objectBoundingBox" width="200%" height="200%" x="-50%" y="-50%"/><clipPath id="id-124"><path d="M0,0 L1205,0 L1205,283 L0,283 L0,0"/></clipPath><clipPath id="id-140"><path d="M0,0 L1205,0 L1205,283 L0,283 L0,0"/></clipPath><clipPath id="id-664"><rect width="1205" height="283"/></clipPath><filter id="filter-id-50" filterUnits="objectBoundingBox" width="200%" height="200%" x="-50%" y="-50%"><feGaussianBlur result="blurOut" in="SourceGraphic" stdDeviation="1.5"/><feOffset result="offsetBlur" dx="1" dy="1"/><feFlood flood-color="#000000" flood-opacity="0.5"/><feComposite in2="offsetBlur" operator="in"/><feMerge><feMergeNode/><feMergeNode in="SourceGraphic"/></feMerge></filter><filter id="filter-id-61" filterUnits="objectBoundingBox" width="120%" height="120%" x="-10%" y="-10%"><feColorMatrix type="saturate" values="0"/></filter><filter id="filter-id-129" filterUnits="objectBoundingBox" width="200%" height="200%" x="-50%" y="-50%"><feGaussianBlur result="blurOut" in="SourceGraphic" stdDeviation="1.5"/><feOffset result="offsetBlur" dx="1" dy="1"/><feFlood flood-color="#000000" flood-opacity="0.5"/><feComposite in2="offsetBlur" operator="in"/><feMerge><feMergeNode/><feMergeNode in="SourceGraphic"/></feMerge></filter><filter id="filter-id-145" filterUnits="objectBoundingBox" width="200%" height="200%" x="-50%" y="-50%"><feGaussianBlur result="blurOut" in="SourceGraphic" stdDeviation="1.5"/><feOffset result="offsetBlur" dx="1" dy="1"/><feFlood flood-color="#000000" flood-opacity="0.5"/><feComposite in2="offsetBlur" operator="in"/><feMerge><feMergeNode/><feMergeNode in="SourceGraphic"/></feMerge></filter></defs><g xmlns="http://www.w3.org/2000/svg"><g fill="#ffffff" fill-opacity="0"><rect width="1330" height="400"/></g><g><g role="region" clip-path="url(#id-45)" opacity="1" aria-label="Chart"><g transform="translate(15,15)"><g><g><g><g><g><g><g transform="translate(95,0)"><g fill="#ffffff" fill-opacity="0"><rect width="1205" height="283"/></g><g><g><g><g stroke-opacity="0.07" stroke="#000000" fill="none" transform="translate(0,202)"><path d=" M0,0  L1205,0 " transform="translate(-0.5,-0.5)"/></g><g stroke-opacity="0.07" stroke="#000000" fill="none" transform="translate(0,243)"><path d=" M0,0  L1205,0 " transform="translate(-0.5,-0.5)"/></g><g stroke-opacity="0.07" stroke="#000000" fill="none" transform="translate(0,283)"><path d=" M0,0  L1205,0 " transform="translate(-0.5,-0.5)"/></g><g stroke-opacity="0.07" stroke="#000000" fill="none" transform="translate(0,323)" display="none"><path d=" M0,0  L1205,0 " transform="translate(-0.5,-0.5)"/></g><g stroke-opacity="0.07" stroke="#000000" fill="none" transform="translate(0,364)" display="none"><path d=" M0,0  L1205,0 " transform="translate(-0.5,-0.5)"/></g><g stroke-opacity="0.07" stroke="#000000" fill="none" transform="translate(0,162)"><path d=" M0,0  L1205,0 " transform="translate(-0.5,-0.5)"/></g><g stroke-opacity="0.07" stroke="#000000" fill="none" transform="translate(0,121)"><path d=" M0,0  L1205,0 " transform="translate(-0.5,-0.5)"/></g><g stroke-opacity="0.07" stroke="#000000" fill="none" transform="translate(0,81)"><path d=" M0,0  L1205,0 " transform="translate(-0.5,-0.5)"/></g><g stroke-opacity="0.07" stroke="#000000" fill="none" transform="translate(0,40)"><path d=" M0,0  L1205,0 " transform="translate(-0.5,-0.5)"/></g><g stroke-opacity="0.07" stroke="#000000" fill="none"><path d=" M0,0  L1205,0 " transform="translate(-0.5,-0.5)"/></g><g stroke-opacity="0.07" stroke="#000000" fill="none" transform="translate(0,-40)" display="none"><path d=" M0,0  L1205,0 " transform="translate(-0.5,-0.5)"/></g></g></g><g><g/></g><g><g><g role="group" stroke-opacity="1" fill-opacity="0" stroke="#08da94" aria-label="ACXIX" stroke-width="3" id="id-121"><g><g clip-path="url(#id-124)"><g><g><g><g style="pointer-events: none;" fill="#86ce86" fill-opacity="0" stroke="#08da94" stroke-opacity="1" stroke-width="3"><g><g stroke-opacity="0"><path/></g><g fill="none" fill-opacity="0"><path d=" M29.2661,242.3714  M29.4661,242.5714  C29.9886,242.5715 35.8848,248.838 36.9299,248.8379 C37.975,248.8378 43.3405,232.1613 44.3937,232.1611 C45.447,232.1609 50.9304,229.0932 51.9748,229.0925 C53.0191,229.0919 58.2844,170.3542 59.3113,170.3539 C60.3381,170.3535 65.6075,194.8452 66.6426,194.8455 C67.6777,194.8458 73.0523,198.3265 74.0963,198.3264 C75.1403,198.3263 80.5107,189.5821 81.555,189.5817 C82.5994,189.5813 87.9694,160.3155 89.0138,160.3155 C90.0582,160.3154 95.4196,188.4371 96.4725,188.4376 C97.5255,188.438 103.0006,207.8268 104.0536,207.8271 C105.1065,207.8274 110.468,221.4838 111.5123,221.4839 C112.5567,221.484 117.9263,219.7822 118.9711,219.7818 C120.0158,219.7815 125.3898,188.6886 126.4349,188.6882 C127.48,188.6878 132.8455,179.2968 133.8988,179.2967 C134.9521,179.2966 140.444,177.3319 141.4798,177.3318 C142.5156,177.3318 147.6842,173.5316 148.694,173.5316 C149.7038,173.5315 154.8766,172.8199 155.9031,172.82 C156.9296,172.8201 162.3127,186.0924 163.3568,186.0927 C164.4008,186.093 169.7711,200.2386 170.8155,200.2387 C171.8599,200.2387 177.2299,192.6018 178.2743,192.6017 C179.3186,192.6017 184.6801,194.2836 185.733,194.2835 C186.786,194.2835 192.2611,184.597 193.314,184.5969 C194.367,184.5967 199.7284,175.2579 200.7728,175.2579 C201.8172,175.2578 207.1868,176.4871 208.2316,176.4869 C209.2763,176.4867 214.6503,153.9562 215.6954,153.956 C216.7405,153.9559 222.106,157.554 223.1592,157.5542 C224.2125,157.5544 229.7045,174.7767 230.7403,174.7768 C231.7761,174.7768 236.9447,164.7669 237.9545,164.7666 C238.9642,164.7664 244.137,151.947 245.1636,151.9467 C246.1901,151.9465 251.5732,142.9391 252.6172,142.9393 C253.6613,142.9394 259.0316,162.9432 260.076,162.9433 C261.1204,162.9435 266.4904,158.3953 267.5347,158.3951 C268.5791,158.3949 273.9406,145.4501 274.9935,145.4499 C276.0464,145.4497 281.5216,137.9305 282.5745,137.9302 C283.6275,137.9298 288.9889,114.2638 290.0333,114.2633 C291.0776,114.2628 296.4473,89.7637 297.492,89.7636 C298.5368,89.7634 303.9108,95.8926 304.9559,95.8925 C306.001,95.8924 311.3664,78.371 312.4197,78.3708 C313.473,78.3706 318.9649,73.8794 320.0007,73.8792 C321.0366,73.879 326.2052,59.4989 327.2149,59.4987 C328.2247,59.4986 333.3975,60.6754 334.4241,60.6752 C335.4506,60.675 340.8337,38.5163 341.8777,38.5163 C342.9217,38.5163 348.2921,60.5375 349.3365,60.5377 C350.3808,60.538 355.7508,66.6345 356.7952,66.6344 C357.8396,66.6342 363.201,46.675 364.254,46.6748 C365.3069,46.6745 370.7821,41.0348 371.835,41.035 C372.8879,41.0352 378.2494,64.7824 379.2937,64.7827 C380.3381,64.7831 385.7078,71.8819 386.7525,71.882 C387.7972,71.8821 393.1713,75.4478 394.2163,75.4478 C395.2614,75.4478 400.6269,75.1042 401.6802,75.1042 C402.7335,75.1041 408.2168,68.6437 409.2612,68.6437 C410.3056,68.6436 415.5708,68.1262 416.5977,68.1262 C417.6246,68.1262 422.894,68.7043 423.9291,68.7043 C424.9642,68.7043 430.3387,68.2393 431.3827,68.2394 C432.4268,68.2395 437.7971,75.763 438.8415,75.7631 C439.8859,75.7633 445.2559,85.2436 446.3002,85.2436 C447.3446,85.2437 452.7061,77.2672 453.759,77.2671 C454.8119,77.267 460.2871,73.5072 461.34,73.5072 C462.393,73.5072 467.7544,77.7521 468.7988,77.7522 C469.8431,77.7524 475.2128,88.6233 476.2575,88.6235 C477.3023,88.6236 482.6763,90.2972 483.7214,90.2972 C484.7665,90.2973 490.1319,95.0273 491.1852,95.0274 C492.2385,95.0274 497.7304,93.204 498.7662,93.204 C499.8021,93.2041 504.9707,98.7993 505.9804,98.7993 C506.9902,98.7994 512.163,95.3994 513.1896,95.3993 C514.2161,95.3992 519.5992,90.8793 520.6432,90.8794 C521.6872,90.8795 527.0576,103.7192 528.102,103.7195 C529.1463,103.7198 534.5163,119.7452 535.5607,119.7454 C536.6051,119.7455 541.9665,119.5311 543.0195,119.5311 C544.0724,119.5311 549.5476,118.9005 550.6005,118.9004 C551.6534,118.9004 557.0149,113.9885 558.0592,113.9884 C559.1036,113.9883 564.4733,109.1937 565.518,109.1935 C566.5627,109.1934 571.9368,97.3117 572.9818,97.3116 C574.0269,97.3114 579.3924,96.8183 580.4457,96.8183 C581.499,96.8184 586.9909,98.4113 588.0267,98.4112 C589.0625,98.4111 594.2311,87.2247 595.2409,87.2246 C596.2507,87.2246 601.4235,89.8 602.45,89.7999 C603.4766,89.7999 608.8597,82.0015 609.9037,82.0013 C610.9477,82.0011 616.3181,71.6639 617.3624,71.6637 C618.4068,71.6635 623.7768,62.0013 624.8212,62.0013 C625.8656,62.0012 631.227,64.2209 632.2799,64.2208 C633.3329,64.2207 638.808,54.1985 639.861,54.1985 C640.9139,54.1985 646.2753,64.5724 647.3197,64.5725 C648.3641,64.5726 653.7337,64.7465 654.7785,64.7464 C655.8232,64.7462 661.1972,53.746 662.2423,53.7457 C663.2874,53.7455 668.6529,38.2055 669.7062,38.205 C670.7595,38.2045 676.2514,5.5834 677.2872,5.5832 C678.323,5.5829 683.4916,11.9305 684.5014,11.9305 C685.5112,11.9305 690.684,5.5185 691.7105,5.5185 C692.737,5.5185 698.1201,15.5205 699.1642,15.5205 C700.2082,15.5205 705.5785,5.8015 706.6229,5.8015 C707.6673,5.8015 713.0373,18.4272 714.0817,18.4273 C715.126,18.4275 720.4875,17.1698 721.5404,17.17 C722.5933,17.1702 728.0685,37.1942 729.1214,37.1943 C730.1744,37.1944 735.5358,29.1085 736.5802,29.1086 C737.6246,29.1086 742.9942,43.6628 744.0389,43.6629 C745.0837,43.6629 750.4577,36.79 751.5028,36.79 C752.5479,36.79 757.9133,44.4717 758.9666,44.4714 C760.0199,44.4712 765.5033,9.299 766.5477,9.2986 C767.592,9.2981 772.8572,1.2127 773.8841,1.2129 C774.911,1.213 780.1804,26.6825 781.2155,26.6829 C782.2506,26.6833 787.6252,41.6412 788.6692,41.6414 C789.7132,41.6416 795.0836,47.7059 796.1279,47.7057 C797.1723,47.7055 802.5423,18.1932 803.5867,18.1929 C804.6311,18.1925 809.9925,11.7242 811.0454,11.7243 C812.0984,11.7243 817.5735,22.6398 818.6265,22.64 C819.6794,22.6402 825.0408,27.0869 826.0852,27.0871 C827.1296,27.0874 832.4992,44.8755 833.544,44.8757 C834.5887,44.876 839.9627,52.9613 841.0078,52.9614 C842.0529,52.9615 847.4184,53.2331 848.4717,53.2331 C849.525,53.2332 855.0169,57.7119 856.0527,57.7118 C857.0885,57.7117 862.2571,44.2759 863.2669,44.2758 C864.2767,44.2756 869.4495,40.2043 870.476,40.2042 C871.5025,40.204 876.8856,29.6185 877.9297,29.6184 C878.9737,29.6182 884.344,27.1755 885.3884,27.1757 C886.4328,27.1758 891.8028,44.6826 892.8472,44.6829 C893.8915,44.6831 899.253,50.3832 900.3059,50.3833 C901.3588,50.3834 906.834,52.0116 907.8869,52.0118 C908.9399,52.0119 914.3013,67.8904 915.3457,67.8905 C916.3901,67.8905 921.7597,56.8977 922.8044,56.8976 C923.8492,56.8974 929.2232,52.419 930.2683,52.4189 C931.3134,52.4187 936.6788,43.462 937.7321,43.4615 C938.7854,43.4611 944.2773,7.2256 945.3132,7.2254 C946.349,7.2252 951.5176,27.5825 952.5274,27.5828 C953.5371,27.5831 958.7099,39.7969 959.7365,39.7971 C960.763,39.7973 966.1461,49.9757 967.1901,49.9758 C968.2341,49.9759 973.6045,49.5687 974.6489,49.5687 C975.6933,49.5687 981.0633,50.7904 982.1076,50.7904 C983.152,50.7904 988.5134,49.9758 989.5664,49.9758 C990.6193,49.9758 996.0945,47.9402 997.1474,47.9402 C998.2003,47.9402 1003.5618,48.3472 1004.6062,48.3473 C1005.6505,48.3474 1011.0202,56.8975 1012.0649,56.8976 C1013.1096,56.8976 1018.4837,54.8616 1019.5288,54.8616 C1020.5738,54.8615 1025.9393,53.6403 1026.9926,53.6402 C1028.0459,53.6402 1033.5378,47.5332 1034.5736,47.5331 C1035.6094,47.533 1040.7781,45.09 1041.7878,45.09 C1042.7976,45.09 1047.9704,44.683 1048.9969,44.6829 C1050.0235,44.6828 1055.4066,36.1331 1056.4506,36.133 C1057.4946,36.133 1062.865,41.0188 1063.9094,41.0188 C1064.9537,41.0189 1070.3237,39.7971 1071.3681,39.7971 C1072.4125,39.7971 1077.7739,42.6472 1078.8269,42.6473 C1079.8798,42.6473 1085.3549,44.6828 1086.4079,44.6829 C1087.4608,44.683 1092.8223,52.0118 1093.8666,52.0118 C1094.911,52.0118 1100.2807,45.0779 1101.3254,45.0779 C1102.3701,45.0778 1107.7441,43.0565 1108.7892,43.0564 C1109.8343,43.0564 1115.1998,39.0137 1116.2531,39.0136 C1117.3064,39.0134 1122.7897,26.2785 1123.8341,26.2786 C1124.8785,26.2787 1130.1437,49.201 1131.1706,49.2016 C1132.1975,49.2021 1137.4669,81.4228 1138.502,81.4231 C1139.5371,81.4235 1144.9116,80.1699 1145.9556,80.1699 C1146.9996,80.1698 1152.37,74.6313 1153.4144,74.6311 C1154.4587,74.631 1159.8288,66.5861 1160.8731,66.5859 C1161.9175,66.5856 1167.2789,50.0507 1168.3319,50.0506 C1169.3848,50.0504 1174.86,49.2015 1175.9129,49.2016 C1176.9658,49.2016 1182.3273,53.0018 1183.3717,53.0019 C1184.416,53.0019 1189.7857,57.6919 1190.8304,57.6916 C1191.8751,57.6912 1197.2492,17.3848 1198.2943,17.3843 C1199.3393,17.3838 1205.2356,9.5412 1205.7581,9.5411"/></g></g></g></g></g></g></g><g/></g></g><g role="group" stroke-opacity="1" fill-opacity="0" stroke="#2d7abf" aria-label="CSLABMF" stroke-width="3" id="id-137"><g><g clip-path="url(#id-140)"><g><g><g><g style="pointer-events: none;" fill="#0975da" fill-opacity="0" stroke="#2d7abf" stroke-opacity="1" stroke-width="3"><g><g stroke-opacity="0"><path/></g><g fill="none" fill-opacity="0"><path d=" M29.2661,242.3714  M29.4661,242.5714  C29.9886,242.5715 35.8848,250.6401 36.9299,250.6402 C37.975,250.6402 43.3405,250.418 44.3937,250.4178 C45.447,250.4176 50.9304,227.3554 51.9748,227.3549 C53.0191,227.3544 58.2844,198.5838 59.3113,198.5835 C60.3381,198.5833 65.6075,203.676 66.6426,203.6763 C67.6777,203.6766 73.0523,225.74 74.0963,225.7402 C75.1403,225.7404 80.5107,224.9018 81.555,224.9017 C82.5994,224.9016 87.9694,213.8 89.0138,213.8 C90.0582,213.8001 95.4196,231.8731 96.4725,231.8732 C97.5255,231.8734 103.0006,229.0943 104.0536,229.0942 C105.1065,229.094 110.468,215.4929 111.5123,215.4924 C112.5567,215.4919 117.9263,181.1678 118.9711,181.1673 C120.0158,181.1668 125.3898,164.6989 126.4349,164.6987 C127.48,164.6985 132.8455,159.1039 133.8988,159.1038 C134.9521,159.1038 140.444,159.4503 141.4798,159.4503 C142.5156,159.4503 147.6842,156.6194 148.694,156.6195 C149.7038,156.6195 154.8766,162.2191 155.9031,162.2192 C156.9296,162.2194 162.3127,170.5782 163.3568,170.5783 C164.4008,170.5783 169.7711,163.1304 170.8155,163.1305 C171.8599,163.1306 177.2299,175.7328 178.2743,175.7329 C179.3186,175.733 184.6801,170.3091 185.733,170.309 C186.786,170.3089 192.2611,169.3877 193.314,169.3876 C194.367,169.3875 199.7284,159.2591 200.7728,159.2591 C201.8172,159.259 207.1868,165.4387 208.2316,165.4386 C209.2763,165.4384 214.6503,144.2549 215.6954,144.2548 C216.7405,144.2547 222.106,154.5901 223.1592,154.5904 C224.2125,154.5907 229.7045,173.9575 230.7403,173.9577 C231.7761,173.9578 236.9447,170.6661 237.9545,170.666 C238.9642,170.6658 244.137,160.1753 245.1636,160.1752 C246.1901,160.1751 251.5732,158.9175 252.6172,158.9174 C253.6613,158.9174 259.0316,153.2397 260.076,153.2396 C261.1204,153.2396 266.4904,150.6258 267.5347,150.6259 C268.5791,150.626 273.9406,162.4161 274.9935,162.4161 C276.0464,162.4161 281.5216,148.6023 282.5745,148.6021 C283.6275,148.6019 288.9889,144.2756 290.0333,144.2754 C291.0776,144.2752 296.4473,126.4969 297.492,126.497 C298.5368,126.497 303.9108,150.3049 304.9559,150.3049 C306.001,150.305 311.3664,130.1463 312.4197,130.146 C313.473,130.1458 318.9649,129.2918 320.0007,129.2918 C321.0366,129.2917 326.2052,123.8936 327.2149,123.8938 C328.2247,123.8939 333.3975,142.8988 334.4241,142.8988 C335.4506,142.8989 340.8337,127.941 341.8777,127.9411 C342.9217,127.9411 348.2921,146.2003 349.3365,146.2006 C350.3808,146.201 355.7508,161.7175 356.7952,161.7175 C357.8396,161.7175 363.201,146.5634 364.254,146.5633 C365.3069,146.5631 370.7821,146.2994 371.835,146.2993 C372.8879,146.2992 378.2494,136.2013 379.2937,136.2014 C380.3381,136.2015 385.7078,157.5354 386.7525,157.5356 C387.7972,157.5358 393.1713,155.5017 394.2163,155.5016 C395.2614,155.5016 400.6269,155.2012 401.6802,155.2012 C402.7335,155.2013 408.2168,156.7125 409.2612,156.7125 C410.3056,156.7124 415.5708,152.0854 416.5977,152.0854 C417.6246,152.0854 422.894,159.0726 423.9291,159.0727 C424.9642,159.0728 430.3387,164.9935 431.3827,164.9934 C432.4268,164.9934 437.7971,152.9237 438.8415,152.9239 C439.8859,152.9241 445.2559,180.6961 446.3002,180.6963 C447.3446,180.6965 452.7061,174.3458 453.759,174.3458 C454.8119,174.3458 460.2871,181.4522 461.34,181.4523 C462.393,181.4525 467.7544,187.5957 468.7988,187.5958 C469.8431,187.596 475.2128,198.6768 476.2575,198.6769 C477.3023,198.6771 482.6763,201.606 483.7214,201.606 C484.7665,201.6059 490.1319,194.293 491.1852,194.2928 C492.2385,194.2927 497.7304,184.3867 498.7662,184.3866 C499.8021,184.3865 504.9707,183.8951 505.9804,183.895 C506.9902,183.8949 512.163,177.1412 513.1896,177.141 C514.2161,177.1409 519.5992,167.68 520.6432,167.6799 C521.6872,167.6799 527.0576,169.7398 528.102,169.7398 C529.1463,169.7397 534.5163,166.4428 535.5607,166.4428 C536.6051,166.4428 541.9665,172.224 543.0195,172.2241 C544.0724,172.2242 549.5476,176.0227 550.6005,176.0228 C551.6534,176.0228 557.0149,177.4616 558.0592,177.4616 C559.1036,177.4617 564.4733,179.6461 565.518,179.646 C566.5627,179.6459 571.9368,165.2681 572.9818,165.268 C574.0269,165.2678 579.3924,160.418 580.4457,160.4181 C581.499,160.4183 586.9909,177.1974 588.0267,177.1976 C589.0625,177.1978 594.2311,179.0662 595.2409,179.0662 C596.2507,179.0663 601.4235,184.9041 602.45,184.9041 C603.4766,184.9042 608.8597,184.0091 609.9037,184.009 C610.9477,184.009 616.3181,181.8405 617.3624,181.8404 C618.4068,181.8404 623.7768,181.8299 624.8212,181.8299 C625.8656,181.8299 631.227,180.7745 632.2799,180.7743 C633.3329,180.7742 638.808,165.7029 639.861,165.7026 C640.9139,165.7022 646.2753,145.0778 647.3197,145.0775 C648.3641,145.0773 653.7337,139.3694 654.7785,139.369 C655.8232,139.3686 661.1972,102.8035 662.2423,102.803 C663.2874,102.8024 668.6529,83.7003 669.7062,83.6997 C670.7595,83.699 676.2514,37.5278 677.2872,37.5274 C678.323,37.527 683.4916,45.4985 684.5014,45.4983 C685.5112,45.4981 690.684,19.7647 691.7105,19.7647 C692.737,19.7647 698.1201,44.618 699.1642,44.6182 C700.2082,44.6184 705.5785,39.7322 706.6229,39.7324 C707.6673,39.7326 713.0373,66.8267 714.0817,66.8268 C715.126,66.8269 720.4875,51.6831 721.5404,51.6831 C722.5933,51.683 728.0685,61.9827 729.1214,61.9827 C730.1744,61.9826 735.5358,48.3707 736.5802,48.3708 C737.6246,48.3709 742.9942,71.5831 744.0389,71.5832 C745.0837,71.5833 750.4577,59.6173 751.5028,59.6172 C752.5479,59.6171 757.9133,63.6339 758.9666,63.6338 C760.0199,63.6336 765.5033,44.3287 766.5477,44.3283 C767.592,44.3279 772.8572,26.0482 773.8841,26.0481 C774.911,26.048 780.1804,35.5815 781.2155,35.5816 C782.2506,35.5817 787.6252,32.1187 788.6692,32.1189 C789.7132,32.119 795.0836,50.71 796.1279,50.71 C797.1723,50.7099 802.5423,27.1816 803.5867,27.1813 C804.6311,27.1811 809.9925,26.9172 811.0454,26.9173 C812.0984,26.9175 817.5735,42.5477 818.6265,42.5478 C819.6794,42.548 825.0408,39.8047 826.0852,39.8048 C827.1296,39.8049 832.4992,51.8435 833.544,51.8436 C834.5887,51.8436 839.9627,44.7582 841.0078,44.7581 C842.0529,44.7579 847.4184,39.2148 848.4717,39.2149 C849.525,39.215 855.0169,57.5208 856.0527,57.521 C857.0885,57.5211 862.2571,52.6869 863.2669,52.6869 C864.2767,52.687 869.4495,64.3269 870.476,64.3271 C871.5025,64.3273 876.8856,71.5731 877.9297,71.5731 C878.9737,71.5732 884.344,70.9415 885.3884,70.9416 C886.4328,70.9417 891.8028,82.1521 892.8472,82.1521 C893.8915,82.152 899.253,67.9142 900.3059,67.9139 C901.3588,67.9137 906.834,54.7002 907.8869,54.7003 C908.9399,54.7003 914.3013,71.8318 915.3457,71.8319 C916.3901,71.832 921.7597,64.8653 922.8044,64.8652 C923.8492,64.8651 929.2232,60.3576 930.2683,60.3574 C931.3134,60.3573 936.6788,52.9049 937.7321,52.9044 C938.7854,52.904 944.2773,16.9544 945.3132,16.9545 C946.349,16.9547 951.5176,67.9133 952.5274,67.9139 C953.5371,67.9146 958.7099,83.2178 959.7365,83.2182 C960.763,83.2185 966.1461,100.3289 967.1901,100.3292 C968.2341,100.3294 973.6045,106.3999 974.6489,106.3999 C975.6933,106.3999 981.0633,99.7596 982.1076,99.7595 C983.152,99.7595 988.5134,103.124 989.5664,103.124 C990.6193,103.1239 996.0945,95.5623 997.1474,95.5622 C998.2003,95.5622 1003.5618,98.6779 1004.6062,98.6781 C1005.6505,98.6782 1011.0202,106.2809 1012.0649,106.2811 C1013.1096,106.2812 1018.4837,111.0584 1019.5288,111.0581 C1020.5738,111.0578 1025.9393,79.0521 1026.9926,79.052 C1028.0459,79.0519 1033.5378,102.875 1034.5736,102.8754 C1035.6094,102.8757 1040.7781,109.3193 1041.7878,109.3193 C1042.7976,109.3192 1047.9704,96.1369 1048.9969,96.1367 C1050.0235,96.1366 1055.4066,93.3937 1056.4506,93.3936 C1057.4946,93.3936 1062.865,89.2688 1063.9094,89.2687 C1064.9537,89.2686 1070.3237,84.7813 1071.3681,84.7811 C1072.4125,84.781 1077.7739,75.9623 1078.8269,75.9621 C1079.8798,75.9618 1085.3549,54.9436 1086.4079,54.9436 C1087.4608,54.9437 1092.8223,81.3855 1093.8666,81.3859 C1094.911,81.3864 1100.2807,98.3674 1101.3254,98.3676 C1102.3701,98.3678 1107.7441,101.4522 1108.7892,101.4523 C1109.8343,101.4523 1115.1998,104.9609 1116.2531,104.9611 C1117.3064,104.9612 1122.7897,119.4165 1123.8341,119.4167 C1124.8785,119.417 1130.1437,129.8304 1131.1706,129.8303 C1132.1975,129.8302 1137.4669,112.9681 1138.502,112.9679 C1139.5371,112.9678 1144.9116,118.6456 1145.9556,118.6457 C1146.9996,118.6458 1152.37,122.0719 1153.4144,122.0721 C1154.4587,122.0722 1159.8288,134.8608 1160.8731,134.8608 C1161.9175,134.8609 1167.2789,125.5916 1168.3319,125.5914 C1169.3848,125.5912 1174.86,115.1935 1175.9129,115.1935 C1176.9658,115.1936 1182.3273,129.1522 1183.3717,129.1523 C1184.416,129.1524 1189.7857,128.0342 1190.8304,128.0341 C1191.8751,128.0339 1197.2492,117.3984 1198.2943,117.3981 C1199.3393,117.3978 1205.2356,95.1691 1205.7581,95.1689"/></g></g></g></g></g></g></g><g/></g></g></g></g><g clip-path="url(#id-664)"><g><g fill="#86ce86" stroke="#08da94"><g/></g><g fill="#0975da" stroke="#2d7abf"><g/></g></g></g><g><g><g><g/></g><g><g/></g></g></g><g><g/></g><g><g/></g><g role="button" focusable="true" tabindex="0" opacity="0" visibility="hidden" aria-hidden="true" transform="translate(1165,-3)" aria-labelledby="id-36-title"><g fill="#6794dc" stroke="#ffffff" fill-opacity="1" stroke-opacity="0" transform="translate(0,8)"><path d="M17,0 L18,0 a17,17 0 0 1 17,17 L35,17 a17,17 0 0 1 -17,17 L17,34 a17,17 0 0 1 -17,-17 L0,17 a17,17 0 0 1 17,-17 Z"/></g><g transform="translate(9,9)"><g stroke="#ffffff" style="pointer-events: none;" transform="translate(0,8)"><path d=" M0,0  L11,0 " transform="translate(2.5,7.5)"/></g><g fill="#000000" style="pointer-events: none;" transform="translate(17,8)"><g display="none"/></g></g><title id="id-36-title">Zoom Out</title></g></g></g><g><g><g aria-hidden="true"><g><g fill="#000000" transform="translate(0,141.5) rotate(-90)"><g display="none"/></g><g stroke-opacity="0.07" stroke="#000000" fill="none" transform="translate(95,283)" opacity="0" visibility="hidden" aria-hidden="true"><path transform="translate(-0.5,-0.5)" d=" M0,0  L1205,0 "/></g><g transform="translate(0,0)"><g><g fill="#000000" aria-label="L" fill-opacity="0" opacity="0" stroke-opacity="0" style="pointer-events: none;" font-weight="Bold" font-size="23px" transform="translate(95,141.5)"><g transform="translate(-85,-12.5)" style="user-select: none;"><text x="0" y="25" dy="-6.75"><tspan>$20,000</tspan></text></g></g><g fill="#000000" font-weight="Bold" font-size="23px" transform="translate(95,202.143)"><g transform="translate(-84,-12.5)" style="user-select: none;"><text x="0" y="25" dy="-6.75"><tspan>$11,000</tspan></text></g></g><g fill="#000000" font-weight="Bold" font-size="23px" transform="translate(95,242.571)"><g transform="translate(-85,-12.5)" style="user-select: none;"><text x="0" y="25" dy="-6.75"><tspan>$10,000</tspan></text></g></g><g fill="#000000" font-weight="Bold" font-size="23px" transform="translate(95,283)"><g transform="translate(-74,-12.5)" style="user-select: none;"><text x="0" y="25" dy="-6.75"><tspan>$9,000</tspan></text></g></g><g fill="#000000" font-weight="Bold" font-size="23px" transform="translate(95,323.429)" display="none"><g transform="translate(-74,-12.5)" style="user-select: none;"><text x="0" y="25" dy="-6.75"><tspan>$8,000</tspan></text></g></g><g fill="#000000" font-weight="Bold" font-size="23px" transform="translate(95,363.857)" display="none"><g transform="translate(-74,-12.5)" style="user-select: none;"><text x="0" y="25" dy="-6.75"><tspan>$7,000</tspan></text></g></g><g fill="#000000" font-weight="Bold" font-size="23px" transform="translate(95,161.714)"><g transform="translate(-85,-12.5)" style="user-select: none;"><text x="0" y="25" dy="-6.75"><tspan>$12,000</tspan></text></g></g><g fill="#000000" font-weight="Bold" font-size="23px" transform="translate(95,121.286)"><g transform="translate(-85,-12.5)" style="user-select: none;"><text x="0" y="25" dy="-6.75"><tspan>$13,000</tspan></text></g></g><g fill="#000000" font-weight="Bold" font-size="23px" transform="translate(95,80.857)"><g transform="translate(-85,-12.5)" style="user-select: none;"><text x="0" y="25" dy="-6.75"><tspan>$14,000</tspan></text></g></g><g fill="#000000" font-weight="Bold" font-size="23px" transform="translate(95,40.429)"><g transform="translate(-85,-12.5)" style="user-select: none;"><text x="0" y="25" dy="-6.75"><tspan>$15,000</tspan></text></g></g><g fill="#000000" font-weight="Bold" font-size="23px" transform="translate(95,0)"><g transform="translate(-85,-12.5)" style="user-select: none;"><text x="0" y="25" dy="-6.75"><tspan>$16,000</tspan></text></g></g><g fill="#000000" font-weight="Bold" font-size="23px" transform="translate(95,-40.429)" display="none"><g transform="translate(-85,-12.5)" style="user-select: none;"><text x="0" y="25" dy="-6.75"><tspan>$17,000</tspan></text></g></g></g></g><g stroke="#000000" stroke-opacity="0" fill="none" style="pointer-events: none;" transform="translate(95,0)"><path d=" M0,0  L0,283 " transform="translate(-0.5,-0.5)"/></g></g></g></g></g><g transform="translate(1300,0)"><g/></g></g></g><g><g transform="translate(95,0)"/></g><g transform="translate(0,283)"><g transform="translate(95,0)"><g aria-hidden="true"><g><g stroke="#000000" stroke-opacity="0" fill="none" style="pointer-events: none;"><path d=" M0,0  L1205,0 " transform="translate(-0.5,-0.5)"/></g><g><g><g fill="#000000" aria-label="L" fill-opacity="0" opacity="0" stroke-opacity="0" style="pointer-events: none;" font-weight="Bold" font-size="23px" transform="translate(-20,10)"><g transform="translate(10,10)" style="user-select: none;"><text x="0" y="25" dy="-6.75"><tspan>L</tspan></text></g></g><g fill="#000000" font-weight="Bold" font-size="23px" transform="translate(-16.446,10)"><g transform="translate(10,10)" style="user-select: none;"><text x="0" y="25" dy="-6.75"><tspan>2007</tspan></text></g></g><g fill="#000000" font-weight="Bold" font-size="23px" transform="translate(72.937,10)"><g transform="translate(10,10)" style="user-select: none;"><text x="0" y="25" dy="-6.75"><tspan>2008</tspan></text></g></g><g fill="#000000" font-weight="Bold" font-size="23px" transform="translate(162.32,10)"><g transform="translate(10,10)" style="user-select: none;"><text x="0" y="25" dy="-6.75"><tspan>2009</tspan></text></g></g><g fill="#000000" font-weight="Bold" font-size="23px" transform="translate(251.57999999999998,10)"><g transform="translate(10,10)" style="user-select: none;"><text x="0" y="25" dy="-6.75"><tspan>2010</tspan></text></g></g><g fill="#000000" font-weight="Bold" font-size="23px" transform="translate(340.84,10)"><g transform="translate(10,10)" style="user-select: none;"><text x="0" y="25" dy="-6.75"><tspan>2011</tspan></text></g></g><g fill="#000000" font-weight="Bold" font-size="23px" transform="translate(430.223,10)"><g transform="translate(10,10)" style="user-select: none;"><text x="0" y="25" dy="-6.75"><tspan>2012</tspan></text></g></g><g fill="#000000" font-weight="Bold" font-size="23px" transform="translate(519.606,10)"><g transform="translate(10,10)" style="user-select: none;"><text x="0" y="25" dy="-6.75"><tspan>2013</tspan></text></g></g><g fill="#000000" font-weight="Bold" font-size="23px" transform="translate(608.866,10)"><g transform="translate(10,10)" style="user-select: none;"><text x="0" y="25" dy="-6.75"><tspan>2014</tspan></text></g></g><g fill="#000000" font-weight="Bold" font-size="23px" transform="translate(698.127,10)"><g transform="translate(10,10)" style="user-select: none;"><text x="0" y="25" dy="-6.75"><tspan>2015</tspan></text></g></g><g fill="#000000" font-weight="Bold" font-size="23px" transform="translate(787.51,10)"><g transform="translate(10,10)" style="user-select: none;"><text x="0" y="25" dy="-6.75"><tspan>2016</tspan></text></g></g><g fill="#000000" font-weight="Bold" font-size="23px" transform="translate(876.892,10)"><g transform="translate(10,10)" style="user-select: none;"><text x="0" y="25" dy="-6.75"><tspan>2017</tspan></text></g></g><g fill="#000000" font-weight="Bold" font-size="23px" transform="translate(966.153,10)"><g transform="translate(10,10)" style="user-select: none;"><text x="0" y="25" dy="-6.75"><tspan>2018</tspan></text></g></g><g fill="#000000" font-weight="Bold" font-size="23px" transform="translate(1055.413,10)"><g transform="translate(10,10)" style="user-select: none;"><text x="0" y="25" dy="-6.75"><tspan>2019</tspan></text></g></g><g fill="#000000" font-weight="Bold" font-size="23px" transform="translate(1144.796,10)"><g transform="translate(10,10)" style="user-select: none;"><text x="0" y="25" dy="-6.75"><tspan>2020</tspan></text></g></g><g fill="#000000" font-weight="Bold" font-size="23px" transform="translate(1234.179,10)" display="none"><g transform="translate(10,10)" style="user-select: none;"><text x="0" y="25" dy="-6.75"><tspan>2021</tspan></text></g></g></g></g><g stroke-opacity="0.07" stroke="#000000" fill="none" display="none" transform="translate(0,-283)"><path transform="translate(-0.5,-0.5)" d=" M0,0  L0,283 "/></g><g fill="#000000" transform="translate(602.5,45)"><g display="none"/></g></g></g></g></g></g></g><g role="group" aria-label="Legend" transform="translate(0,328)"><g><g style="cursor: pointer;" focusable="true" tabindex="0" role="switch" aria-controls="id-121" aria-labelledby="id-121" aria-checked="true" transform="translate(407,0)"><g fill="#ffffff" fill-opacity="0"><rect width="233" height="42"/></g><g transform="translate(0,8)"><g style="pointer-events: none;" fill="#86ce86" transform="translate(0,1.5)"><g fill="#ffffff" fill-opacity="0" stroke-opacity="0"><rect width="23" height="23"/></g><g><g fill="#86ce86" fill-opacity="0" stroke="#08da94" stroke-opacity="1" stroke-width="3" transform="translate(0,11.5)"><line x1="0" y1="0" x2="23" y2="0.00001"/></g></g></g><g fill="#000000" style="pointer-events: none;" font-size="24px" aria-label="ACXIX[/] [bold ]" transform="translate(28,0)"><g style="user-select: none;"><text x="0" y="26" dy="-7.02"><tspan>ACXIX</tspan><tspan> </tspan><tspan style="font-weight:bold;fill:#08da94">$15,764</tspan></text></g></g><g fill="#000000" style="pointer-events: none;" display="none"><g display="none"/></g></g></g><g style="cursor: pointer;" focusable="true" tabindex="0" role="switch" aria-controls="id-137" aria-labelledby="id-137" aria-checked="true" transform="translate(660,0)"><g fill="#ffffff" fill-opacity="0"><rect width="233" height="42"/></g><g transform="translate(0,8)"><g style="pointer-events: none;" fill="#0975da" transform="translate(0,1.5)"><g fill="#ffffff" fill-opacity="0" stroke-opacity="0"><rect width="23" height="23"/></g><g><g fill="#0975da" fill-opacity="0" stroke="#2d7abf" stroke-opacity="1" stroke-width="3" transform="translate(0,11.5)"><line x1="0" y1="0" x2="23" y2="0.00001"/></g></g></g><g fill="#000000" style="pointer-events: none;" font-size="24px" aria-label="CSLABMF[/] [bold ]" transform="translate(28,0)"><g style="user-select: none;"><text x="0" y="26" dy="-7.02"><tspan>CSLABMF</tspan><tspan> </tspan><tspan style="font-weight:bold;fill:#2d7abf">$13,646</tspan></text></g></g><g fill="#000000" style="pointer-events: none;" display="none"><g display="none"/></g></g></g></g></g></g></g></g></g><g><g><g role="tooltip" visibility="hidden" opacity="0"><g fill="#ffffff" style="pointer-events: none;" fill-opacity="0.9" stroke-width="1" stroke-opacity="1" stroke="#ffffff" filter="url(#filter-id-50)" transform="translate(0,6)"><path d="M3,0 L3,0 L0,-6 L13,0 L21,0 a3,3 0 0 1 3,3 L24,8 a3,3 0 0 1 -3,3 L3,11 a3,3 0 0 1 -3,-3 L0,3 a3,3 0 0 1 3,-3"/></g><g><g fill="#ffffff" style="pointer-events: none;" transform="translate(12,6)"><g transform="translate(0,7)" display="none"/></g></g></g><g visibility="hidden" style="pointer-events: none;" display="none"><g fill="#ffffff" opacity="1"><rect width="1330" height="400"/></g><g><g transform="translate(634,77)"><g><g stroke-opacity="1" fill="#f3f3f3" fill-opacity="0.8"><g><g><path d=" M53,0  a53,53,0,0,1,-106,0 a53,53,0,0,1,106,0 M42,0  a42,42,0,0,0,-84,0 a42,42,0,0,0,84,0 L42,0 "/></g></g></g><g stroke-opacity="1" fill="#000000" fill-opacity="0.2"><g><g><path d=" M50,0  a50,50,0,0,1,-100,0 a50,50,0,0,1,100,0 M45,0  a45,45,0,0,0,-90,0 a45,45,0,0,0,90,0 L45,0 "/></g></g></g><g fill="#000000" fill-opacity="0.4"><g style="user-select: none;" transform="translate(0,0)"><text x="0px" y="0" dy="0" text-anchor="middle"><tspan>100%</tspan></text></g></g></g></g></g></g><g opacity="0.3" style="cursor: pointer;" aria-labelledby="id-61-title" filter="url(#filter-id-61)" transform="translate(0,379)"><g fill="#ffffff" opacity="0"><rect width="66" height="21"/></g><g><g shape-rendering="auto" fill="none" stroke-opacity="1" stroke-width="1.7999999999999998" stroke="#3cabff"><path d=" M15,15  C17.4001,15 22.7998,15.0001 27,15 C31.2002,14.9999 33.2999,6 36,6 C38.7001,6 38.6999,10.5 40.5,10.5 C42.3001,10.5 42.2999,6 45,6 C47.7001,6 50.9999,14.9999 54,15 C57.0002,15.0001 58.7999,15 60,15"/></g><g shape-rendering="auto" fill="none" stroke-opacity="1" stroke-width="1.7999999999999998" stroke="url(#gradient-id-64)"><path d=" M6,15  C8.2501,15 9.7498,15.0001 15,15 C20.2502,14.9999 20.7748,3.6 27,3.6 C33.2252,3.6 33.8998,14.9999 39.9,15 C45.9002,15.0001 45.9748,15 51,15 C56.0252,15 57.7499,15 60,15"/></g></g><title id="id-61-title">Chart created using amCharts library</title></g><g role="tooltip" visibility="hidden" opacity="0"><g fill="#000000" style="pointer-events: none;" fill-opacity="1" stroke-width="1" stroke-opacity="1" stroke="#000000" transform="translate(110,298)"><path d="M0,0 L20,0 a0,0 0 0 1 0,0 L20,10 a0,0 0 0 1 -0,0 L0,10 a0,0 0 0 1 -0,-0 L0,0 a0,0 0 0 1 0,-0"/></g><g><g fill="#ffffff" style="pointer-events: none;" transform="translate(120,298)"><g transform="translate(0,5)" display="none"/></g></g></g><g role="tooltip" visibility="hidden" opacity="0"><g fill="#000000" style="pointer-events: none;" fill-opacity="1" stroke-width="1" stroke-opacity="1" stroke="#000000" transform="translate(-25,15)"><path d="M0,0 L20,0 a0,0 0 0 1 0,0 L20,0 L20,0 L25,0 L20,10 L20,10 a0,0 0 0 1 -0,0 L0,10 a0,0 0 0 1 -0,-0 L0,0 a0,0 0 0 1 0,-0"/></g><g><g fill="#ffffff" style="pointer-events: none;" transform="translate(-15,15)"><g transform="translate(0,5)" display="none"/></g></g></g><g role="tooltip" visibility="hidden" opacity="0"><g fill="#ffffff" style="pointer-events: none;" fill-opacity="0.9" stroke-width="1" stroke-opacity="1" stroke="#ffffff" filter="url(#filter-id-129)" transform="translate(6,0)"><path d="M3,0 L21,0 a3,3 0 0 1 3,3 L24,8 a3,3 0 0 1 -3,3 L3,11 a3,3 0 0 1 -3,-3 L0,8 L0,8 L-6,0 L0,-2 L0,3 a3,3 0 0 1 3,-3"/></g><g><g fill="#ffffff" style="pointer-events: none;" transform="translate(18,0)"><g transform="translate(0,7)" display="none"/></g></g></g><g role="tooltip" visibility="hidden" opacity="0"><g fill="#ffffff" style="pointer-events: none;" fill-opacity="0.9" stroke-width="1" stroke-opacity="1" stroke="#ffffff" filter="url(#filter-id-145)" transform="translate(6,0)"><path d="M3,0 L21,0 a3,3 0 0 1 3,3 L24,8 a3,3 0 0 1 -3,3 L3,11 a3,3 0 0 1 -3,-3 L0,8 L0,8 L-6,0 L0,-2 L0,3 a3,3 0 0 1 3,-3"/></g><g><g fill="#ffffff" style="pointer-events: none;" transform="translate(18,0)"><g transform="translate(0,7)" display="none"/></g></g></g></g></g></g></g></svg>